<svg width="869" height="721" xmlns="http://www.w3.org/2000/svg"><g fill="none" fill-rule="evenodd"><g transform="translate(227 94)"><rect fill="#F2F2F2" width="396" height="346" rx="8"/><path d="M8 0h380a8 8 0 0 1 8 8v19H0V8a8 8 0 0 1 8-8z" fill="#C5CFD6"/><g transform="translate(9 10)" fill="#F2F2F2"><circle cx="4" cy="4" r="4"/><circle cx="16" cy="4" r="4"/><circle cx="28" cy="4" r="4"/></g><g transform="translate(310 132)"><rect fill="#FFF" width="70" height="194" rx="8"/><g transform="translate(18 18)"><rect fill="#DDE3E9" width="34" height="26" rx="4"/><rect fill="#AFB9C5" y="34" width="34" height="25" rx="4"/><rect fill="#DDE3E9" y="67" width="34" height="25" rx="4"/><rect fill="#DDE3E9" y="133" width="34" height="25" rx="4"/><rect fill="#C5CFD6" y="100" width="34" height="25" rx="4"/></g></g><g transform="translate(310 43)"><rect fill="#FFF" width="70" height="81" rx="8"/><g transform="translate(10 15)" fill="#DDE3E9"><circle cx="25" cy="16" r="16"/><rect y="36" width="50" height="6" rx="3"/><rect x="8" y="46" width="34" height="6" rx="3"/></g></g><g transform="translate(16 43)"><rect fill="#FFF" width="286" height="47" rx="4"/><g transform="translate(9 14.1)" fill="#DDE3E9"><rect width="228" height="7.05" rx="3"/><rect y="11.75" width="153.041" height="7.05" rx="3"/></g><g transform="translate(248.435 16.5)"><circle fill="#DDE3E9" cx="7" cy="7" r="7"/><circle fill="#F2F2F2" cx="7" cy="7" r="3"/></g></g><g transform="translate(16 98)"><rect fill="#FFF" width="286" height="39" rx="4"/><g transform="translate(9 11.7)" fill="#DDE3E9"><rect width="228" height="5.85" rx="2.925"/><rect y="9.75" width="153.041" height="5.85" rx="2.925"/></g><g transform="translate(248.435 12.5)"><circle fill="#DDE3E9" cx="7" cy="7" r="7"/><circle fill="#F2F2F2" cx="7" cy="7" r="3"/></g></g><g transform="translate(16 145)"><rect fill="#FFF" width="286" height="39" rx="4"/><g transform="translate(9 11.7)" fill="#DDE3E9"><rect width="228" height="5.85" rx="2.925"/><rect y="9.75" width="153.041" height="5.85" rx="2.925"/></g><g transform="translate(248.435 12.5)"><circle fill="#DDE3E9" cx="7" cy="7" r="7"/><circle fill="#AFB9C5" cx="7" cy="7" r="3"/></g></g><g transform="translate(16 286)"><rect fill="#FFF" width="286" height="39" rx="4"/><g transform="translate(9 11.7)" fill="#DDE3E9"><rect width="228" height="5.85" rx="2.925"/><rect y="9.75" width="153.041" height="5.85" rx="2.925"/></g><g transform="translate(248.435 12.5)"><circle fill="#DDE3E9" cx="7" cy="7" r="7"/><circle fill="#F2F2F2" cx="7" cy="7" r="3"/></g></g><g transform="translate(16 239)"><rect fill="#FFF" width="286" height="39" rx="4"/><g transform="translate(9 11.7)" fill="#DDE3E9"><rect width="228" height="5.85" rx="2.925"/><rect y="9.75" width="153.041" height="5.85" rx="2.925"/></g><g transform="translate(248.435 12.5)"><circle fill="#DDE3E9" cx="7" cy="7" r="7"/><circle fill="#F2F2F2" cx="7" cy="7" r="3"/></g></g><g transform="translate(16 192)"><rect fill="#FFF" width="286" height="39" rx="4"/><g transform="translate(9 11.7)" fill="#DDE3E9"><rect width="228" height="5.85" rx="2.925"/><rect y="9.75" width="153.041" height="5.85" rx="2.925"/></g><g transform="translate(248.435 12.5)"><circle fill="#DDE3E9" cx="7" cy="7" r="7"/><circle fill="#F2F2F2" cx="7" cy="7" r="3"/></g></g></g><path d="M248.55 269.874c-5.315-4.715-9.326-10.845-9.844-18.273-1.491-21.401 28.664-20.885 35.906-10.995 7.241 9.89 10.373 37.116 3.225 40.07-2.85 1.178-9.414.196-16.37-2.768l8.027 27.91-23.766 3.34 2.822-39.284z" fill="#B28B67"/><path d="M263.587 230.275c-3.387-.533-8.148-.207-10.1.3.749-2.862.773-5.936-.004-8.817-.755-2.8-2.369-5.046-3.904-7.423-.707-1.095-1.486-2.174-2.529-2.942-1.062-.781-2.33-1.218-3.61-1.331-1.31-.116-2.633.095-3.867.54-.545.198-1.013.526-1.545.746-.544.226-.867-.09-1.327-.387-1.108-.717-2.615-.936-3.886-.911-1.426.027-2.85.443-4.123 1.092-1.238.632-2.386 1.536-3.177 2.73-.353.53-.658 1.122-.821 1.75-.067.258-.064.405-.295.528-.213.114-.475.154-.696.265-2.137 1.075-3.812 3.078-4.544 5.451-.427 1.385-.394 3.712.045 6.263.44 2.552 3.693 8.913 6.2 11.048 2.238 1.906 5.28 2.943 8.108 3.187-1.527 2.335-2.372 5.103-2.896 7.871a36.171 36.171 0 0 0-.547 9.144c.194 2.916.604 5.972 1.678 8.702 1.004 2.554 2.663 4.53 5.116 5.588 1.124.485 2.305.801 3.486 1.076 1.164.271 2.33.53 3.52.607 2.253.144 4.764-.288 6.206-2.267.52-.714 1.077-1.597 1.412-2.427.121-.298.192-.492-.04-.735-.277-.29-.687-.485-1.021-.696-1.902-1.202-3.225-2.978-3.812-5.226-.595-2.282-.392-5.363 1.72-6.693 2.609-1.64 5.876-.637 8.538.352.53-3.859 2.22-7.504 5.365-9.682 3.48-2.41 7.747-3.234 11.369-5.391.943-.562 1.898-1.184 2.515-2.145.258-.402.555-.918.612-1.41.074-.646-.401-1.111-.78-1.553-2.007-2.344-8.98-6.67-12.366-7.204z" fill="#191847"/><path fill="#997659" d="M254.433 387.882l74.554 124.227 55.895 105.023h12.039l-93.652-229.25z"/><path d="M377.511 612.284c-1.118 2.986-1.678 5.22-1.678 6.703 0 1.804.3 4.435.902 7.895h56.401c1.466-4.846.62-7.462-2.538-7.848a312.366 312.366 0 0 1-7.87-1.047l-26.215-11.686a1 1 0 0 0-1.331.532l-1.685 4.087c-2.924 1.364-5.3 2.046-7.127 2.046-1.485 0-3.536-.6-6.152-1.799a2 2 0 0 0-2.707 1.117z" fill="#E4E4E4"/><path d="M369.358 600.315l23.217-7c-10.172-30.308-22.639-63.661-37.402-100.059-14.762-36.398-30.617-71.522-47.563-105.374h-65.574c18.84 42.82 38.815 81.73 59.921 116.725 21.107 34.996 43.574 66.898 67.401 95.708z" fill="#DB2721"/><path d="M249.534 387.882c-7.037 43.654-20.608 99.427-21.89 101.148-.853 1.148-31.592 11.414-92.216 30.799l2.6 10.58c72.295-10.395 110.388-18.461 114.28-24.197 5.836-8.603 34.983-76.567 46.272-118.33h-49.046z" fill="#B28B67"/><path d="M156.738 510.682l4.58 17.042c54.073 4.726 87.204 1.311 99.394-10.246 12.19-11.558 26.083-54.756 41.68-129.596h-62.529c-9.881 61.284-15.406 93.212-16.573 95.785-1.167 2.572-23.351 11.577-66.552 27.015z" fill="#FF4133"/><path d="M138.413 515.32c-3.135-.583-5.433-.746-6.893-.488-1.776.313-4.316 1.066-7.618 2.258l9.794 55.545c5.026.602 7.455-.685 7.288-3.862-.168-3.177-.28-5.821-.336-7.932l6.957-27.846a1 1 0 0 0-.756-1.22l-4.318-.949c-1.85-2.642-2.935-4.863-3.252-6.663-.258-1.462-.023-3.586.703-6.371a2 2 0 0 0-1.57-2.472z" fill="#E4E4E4"/><g><path d="M293.225 323.385l31.86-23.675c4.785-7.594 9.697-13.66 14.739-18.198 1.602-.947 4.518-1.793 2.426 3.518-2.091 5.312-4.052 10.993-2.42 12.31 1.63 1.316 4.868-1.299 6.914.982 1.363 1.52-4.304 5.022-17.003 10.505l-21.859 26.391-14.657-11.833zm56.275 8.289l13.992-10.425c.994-8.36 2.966-12.773 5.917-13.239 2.124-1.372-.402 9.37 3.782 7.88 4.183-1.488 13.601-10.754 15.635-9.427 3.009 1.963 1.629 9.482-.685 13.452-4.323 7.418-8.359 10.314-18.707 14.819-5.41 2.355-11.058 6.345-16.941 11.97l-2.993-15.03z" fill="#997659"/><path d="M275.83 321.553c12.07-1.825 27.829-6.633 43.498-19.924l8.862 14.054c-10.214 13.393-25.54 25.372-40.18 27.014-11.54 1.293-19.36-11.729-12.18-21.144z" fill="#2026A2"/><path d="M295.486 343.326c13.28 1.384 34.268-5.4 62.966-20.35 9.661 14.386 14.671 24.906 15.03 31.56-24.015 17.123-45.377 26.254-63.616 29.222 2.1 10.732 2.226 21.207-.892 31.233-6.409 20.61-62.36 10.22-79.83 16.268-16.367-34.815 3.309-52.664.053-75.956-3.565-25.506 11.476-67.652 14.501-68.077l27.584-3.877c4.26 19.264 14.937 39.653 24.204 59.977z" fill="#1F28CF"/></g><g><path d="M566.988 266.47c3.914-5.93 6.202-12.89 4.78-20.198-4.099-21.058-33.093-12.754-37.529-1.328-4.435 11.427-.413 38.537 7.256 39.54 3.058.4 9.144-2.247 15.095-6.91l-.53 29.037 23.822-2.925-12.894-37.216z" fill="#B28B67"/><path d="M546.3 230.921c3.076-.9 11.486-2.292 13.045-2.483.996-.122 2.104-.027 2.581-1.014.392-.809.06-2.054.097-2.941.043-1.03.158-2.056.277-3.08.337-2.914 1.042-5.732 2.18-8.437 2.136-5.076 5.661-9.278 10.423-12.057 5.257-3.067 11.471-4.385 17.501-4.634 6.453-.267 12.496 1.132 18.773 2.377 5.98 1.185 12.093 1.19 17.992-.472 5.944-1.674 10.118-5.52 14.845-9.263 4.84-3.833 10.561-6.653 16.804-6.933 5.827-.26 11.44 1.47 16.604 4.067 4.832 2.431 8.957 5.563 11.657 10.351 2.904 5.152 3.633 11.108.542 16.356-4.481 7.606-14.164 10.62-22.425 11.452a45.193 45.193 0 0 1-14.26-.843c-6.26-1.374-11.884-4.314-17.854-6.528-2.802-1.038-5.662-1.822-8.615-2.278-2.866-.442-5.638-.466-7.94 1.516-2.436 2.095-4.6 4.126-7.499 5.607-2.78 1.42-5.792 2.394-8.897 2.75-6.04.695-12.221-.455-18.238-.995-4.906-.44-10.146-.835-14.898.75-1.983.662-4.849 1.877-5.324 4.08 12.637.723 19.37 15.415 17.262 27.066-1.137 6.288-11.574 14.757-16.36 12.112-3.033-1.675-1.668-4.531-.788-6.414 1.684-3.605 1.873-7.994-2.29-9.85-3.592-1.6-6.522 3.607-6.59 3.61-.928.04-9.422-3.477-15.7-9.36-5.36.983-6.616-2.476-5.684-5.546.932-3.07 8.528-7.721 12.779-8.966z" fill="#191847"/><path d="M607.967 387.882c-1.809 24.61-118.356 97.063-119.036 99.096-.302.904 11.79 29.464 36.277 85.682l-10.188 3.946c-37.558-59.539-55.373-92.48-53.444-98.824 2.762-9.083 32.905-38.963 90.427-89.639l55.964-.261z" fill="#B28B67"/><path d="M522.527 559.964l-16.634 6.035c-35.074-39.443-48.822-71.987-46.315-88.568 1.671-11.054 31.71-40.884 90.115-89.489h59.467c-2.03 56.992-110.053 99.253-111.498 101.682-1.445 2.428 12.774 26.215 24.865 70.34z" fill="#2F3676"/><path d="M528.959 570.687c2.072 2.423 3.362 4.332 3.87 5.725.616 1.695 1.234 4.27 1.852 7.727l-53 19.29c-3.034-4.052-3.134-6.8-.299-8.242a312.366 312.366 0 0 0 7.037-3.676l20.637-19.948a1 1 0 0 1 1.434.045l2.981 3.265c3.214.282 5.68.11 7.397-.515 1.395-.508 3.117-1.773 5.166-3.795a2 2 0 0 1 2.925.124z" fill="#E4E4E4"/><path fill="#997659" d="M594.567 387.882l51.918 124.227 51.028 105.023h-12.04l-131.716-229.25z"/><path d="M698.242 612.284c1.119 2.986 1.678 5.22 1.678 6.703 0 1.804-.3 4.435-.901 7.895h-56.402c-1.466-4.846-.62-7.462 2.538-7.848 3.158-.386 5.781-.735 7.87-1.047l26.215-11.686a1 1 0 0 1 1.332.532l1.685 4.087c2.923 1.364 5.299 2.046 7.126 2.046 1.485 0 3.536-.6 6.153-1.799a2 2 0 0 1 2.706 1.117z" fill="#E4E4E4"/><path d="M692.905 595.315l-26.751 5c-20.684-30.308-107.247-154.581-116.737-212.433h59.553c31.695 41.82 64.219 176.623 83.935 207.433z" fill="#5C63AB"/><g><path d="M502.737 369.19l-38.044-11.36c-7.095-5.502-13.789-9.523-20.08-12.065-1.83-.343-4.86-.142-1.075 4.135 3.783 4.277 7.57 8.945 6.489 10.74-1.082 1.794-5.02.443-6.161 3.285-.761 1.895 5.763 3.25 19.573 4.062l29.576 17.331 9.722-16.127zM649.24 355.62l-19.923 6.542c25.215 35.598 38.708 54.449 40.479 56.553 3.984 4.734 2.014 14.55 1.469 19.658 7.455.791 3.262-9.726 12.714-8.583 8.627 1.043 16.379 5.487 23.306-2.64.852-1 1.216-3.84-2.23-4.852-8.586-2.519-21.441-7.631-23.709-9.95-3.092-3.163-13.794-22.072-32.106-56.728z" fill="#B28B67"/><path d="M563.982 288.843l-8.797-.414c-16.54 20.438-18.85 64.945-30.648 72.247-11.156 6.904-28.566 3.686-49.365-.991l-4.435 14.33c20.5 17.286 61.09 29.033 75.568 17.704 23.147-18.113 22.32-72.554 17.677-102.876z" fill="#DB2721"/><path d="M614.785 392.09l-76.238 9.36c-3.483.428-3.442-4.663-3.249-7.254 2.229-29.895 21.055-64.136 15.954-105.675l21.569-6.135c21.767 26.906 32.462 62.01 41.964 109.703z" fill="#DDE3E9"/><path d="M618.761 361.61c18.97 26.017 34.503 44.518 46.597 55.503l15.597-5.08c-18.102-62.327-53.673-105.6-106.715-129.821l-.251.03-8.456 1.039c-11.511 69.457-11.47 114.79.125 135.998l68.626-8.426c-3.09-16.18-8.689-33.006-15.523-49.242z" fill="#FF4133"/></g></g><g transform="rotate(-14 1145.652 -1197.395)"><path d="M50.828 54.607l-.007.016c.003-.005.007-.025.007-.016" fill="#C5CFD6"/><path d="M50.823 54.614v.005c0-.005.008-.02 0-.005M50.858 54.53c-.007.02-.016.039-.024.059l.012-.028a5.5 5.5 0 0 1 .012-.031" fill="#C5CFD6"/><path d="M50.836 54.59l-.012.028c-.03.056.012-.028.012-.028M50.825 54.614zM50.824 54.615l.001-.002-.001.002M50.82 54.622c-.007.012.027-.046 0 0M50.824 54.615l.002-.002-.002.002" fill="#C5CFD6"/><rect fill="#2B44FF" x=".575" y=".818" width="100" height="66" rx="4"/><g fill="#000" fill-opacity=".2"><path d="M38.37 20.093l-28.841 47h57.68z"/><path d="M68.105 32.682L42.61 67.092h50.993z"/></g><circle fill="#FFF" cx="79.017" cy="23.642" r="9.5"/></g></g></svg>