<svg width="719" height="479" xmlns="http://www.w3.org/2000/svg" xmlns:xlink="http://www.w3.org/1999/xlink"><defs><path id="a" d="M0 0h719v479H0z"/></defs><g fill="none" fill-rule="evenodd"><mask id="b" fill="#fff"><use xlink:href="#a"/></mask><use fill="#FFD4D4" xlink:href="#a"/><g mask="url(#b)"><g transform="translate(159 -33)"><rect fill="#F2F2F2" width="396" height="346" rx="8"/><g transform="translate(310 132)"><rect fill="#FFF" width="70" height="194" rx="8"/><g transform="translate(18 18)"><rect fill="#DDE3E9" width="34" height="26" rx="4"/><rect fill="#AFB9C5" y="34" width="34" height="25" rx="4"/><rect fill="#DDE3E9" y="67" width="34" height="25" rx="4"/><rect fill="#DDE3E9" y="133" width="34" height="25" rx="4"/><rect fill="#C5CFD6" y="100" width="34" height="25" rx="4"/></g></g><g transform="translate(310 43)"><rect fill="#FFF" width="70" height="81" rx="8"/><g transform="translate(10 15)" fill="#DDE3E9"><circle cx="25" cy="16" r="16"/><rect y="36" width="50" height="6" rx="3"/><rect x="8" y="46" width="34" height="6" rx="3"/></g></g><g transform="translate(16 43)"><rect fill="#FFF" width="286" height="47" rx="4"/><g transform="translate(9 14.1)" fill="#DDE3E9"><rect width="228" height="7.05" rx="3"/><rect y="11.75" width="153.041" height="7.05" rx="3"/></g><g transform="translate(248.435 16.5)"><circle fill="#DDE3E9" cx="7" cy="7" r="7"/><circle fill="#F2F2F2" cx="7" cy="7" r="3"/></g></g><g transform="translate(16 98)"><rect fill="#FFF" width="286" height="39" rx="4"/><g transform="translate(9 11.7)" fill="#DDE3E9"><rect width="228" height="5.85" rx="2.925"/><rect y="9.75" width="153.041" height="5.85" rx="2.925"/></g><g transform="translate(248.435 12.5)"><circle fill="#DDE3E9" cx="7" cy="7" r="7"/><circle fill="#F2F2F2" cx="7" cy="7" r="3"/></g></g><g transform="translate(16 145)"><rect fill="#FFF" width="286" height="39" rx="4"/><g transform="translate(9 11.7)" fill="#DDE3E9"><rect width="228" height="5.85" rx="2.925"/><rect y="9.75" width="153.041" height="5.85" rx="2.925"/></g><g transform="translate(248.435 12.5)"><circle fill="#DDE3E9" cx="7" cy="7" r="7"/><circle fill="#AFB9C5" cx="7" cy="7" r="3"/></g></g><g transform="translate(16 286)"><rect fill="#FFF" width="286" height="39" rx="4"/><g transform="translate(9 11.7)" fill="#DDE3E9"><rect width="228" height="5.85" rx="2.925"/><rect y="9.75" width="153.041" height="5.85" rx="2.925"/></g><g transform="translate(248.435 12.5)"><circle fill="#DDE3E9" cx="7" cy="7" r="7"/><circle fill="#F2F2F2" cx="7" cy="7" r="3"/></g></g><g transform="translate(16 239)"><rect fill="#FFF" width="286" height="39" rx="4"/><g transform="translate(9 11.7)" fill="#DDE3E9"><rect width="228" height="5.85" rx="2.925"/><rect y="9.75" width="153.041" height="5.85" rx="2.925"/></g><g transform="translate(248.435 12.5)"><circle fill="#DDE3E9" cx="7" cy="7" r="7"/><circle fill="#F2F2F2" cx="7" cy="7" r="3"/></g></g><g transform="translate(16 192)"><rect fill="#FFF" width="286" height="39" rx="4"/><g transform="translate(9 11.7)" fill="#DDE3E9"><rect width="228" height="5.85" rx="2.925"/><rect y="9.75" width="153.041" height="5.85" rx="2.925"/></g><g transform="translate(248.435 12.5)"><circle fill="#DDE3E9" cx="7" cy="7" r="7"/><circle fill="#F2F2F2" cx="7" cy="7" r="3"/></g></g></g><path d="M147.924 142.903c-6.325-5.571-11.095-12.817-11.703-21.603-1.751-25.312 34.164-24.737 42.777-13.048 8.613 11.69 12.31 43.892 3.794 47.394-3.396 1.397-11.212.243-19.493-3.255l9.528 33.005-28.31 3.978 3.407-46.471z" fill="#B28B67"/><path d="M165.88 96.046c-4.034-.627-9.705-.235-12.03.365.895-3.385.928-7.022.006-10.428-.896-3.31-2.816-5.966-4.641-8.776-.841-1.295-1.767-2.57-3.009-3.476-1.264-.924-2.773-1.439-4.298-1.571-1.56-.136-3.136.115-4.606.644-.65.234-1.208.622-1.841.884-.648.267-1.033-.105-1.58-.456-1.32-.847-3.114-1.104-4.628-1.074-1.698.034-3.395.528-4.911 1.297-1.476.748-2.844 1.82-3.788 3.232-.42.629-.784 1.328-.98 2.072-.08.305-.076.478-.35.625-.255.135-.568.182-.831.314-2.546 1.274-4.543 3.646-5.418 6.453-.51 1.638-.474 4.39.047 7.408.52 3.018 4.387 10.539 7.37 13.061 2.664 2.252 6.285 3.475 9.654 3.76-1.821 2.764-2.832 6.04-3.459 9.314a42.513 42.513 0 0 0-.662 10.816c.228 3.45.712 7.064 1.988 10.292 1.193 3.02 3.167 5.356 6.088 6.604 1.338.572 2.743.945 4.15 1.269 1.386.319 2.774.624 4.192.713 2.683.168 5.674-.346 7.393-2.689.62-.844 1.285-1.89 1.685-2.872.145-.353.229-.582-.047-.869-.33-.343-.818-.573-1.215-.822-2.264-1.42-3.837-3.519-4.533-6.178-.706-2.698-.462-6.343 2.056-7.918 3.108-1.944 6.999-.76 10.168.406.636-4.565 2.652-8.879 6.401-11.459 4.148-2.854 9.23-3.834 13.546-6.39 1.125-.666 2.262-1.402 3-2.54.307-.476.661-1.087.729-1.668.09-.764-.476-1.315-.927-1.837-2.388-2.77-10.687-7.878-14.72-8.506z" fill="#191847"/><path fill="#997659" d="M154.7 283.17l88.425 147.097 66.293 124.358h14.279L212.622 283.17z"/><path d="M300.857 548.258c-1.44 3.708-2.16 6.465-2.16 8.272 0 2.12.36 5.211 1.078 9.276h67.498c1.754-5.693.741-8.767-3.038-9.221-3.78-.454-6.918-.864-9.418-1.23l-31.567-13.817a1 1 0 0 0-1.323.53l-2.092 4.984c-3.499 1.602-6.342 2.404-8.529 2.404-1.85 0-4.432-.764-7.748-2.29a2 2 0 0 0-2.7 1.092z" fill="#E4E4E4"/><path d="M291.006 534.712l27.537-8.289c-12.065-35.887-26.851-75.38-44.36-118.48-17.51-43.098-36.314-84.689-56.413-124.773h-77.774c22.346 50.704 46.036 96.776 71.07 138.214 25.033 41.439 51.68 79.215 79.94 113.328z" fill="#DB2721"/><path d="M148.889 283.17c-8.346 51.691-24.442 117.732-25.961 119.77-1.013 1.359-37.47 13.515-109.374 36.469l3.084 12.529c85.745-12.31 130.925-21.861 135.54-28.653 6.923-10.186 41.493-90.663 54.882-140.115h-58.171z" fill="#B28B67"/><path d="M38.83 428.578l5.432 20.179c64.132 5.597 103.427 1.553 117.885-12.132 14.458-13.685 30.936-64.837 49.434-153.455h-74.162c-11.72 72.566-18.272 110.373-19.656 113.419-1.385 3.046-27.696 13.71-78.934 31.99z" fill="#FF4133"/><path d="M17.753 434.086c-3.902-.774-6.742-1.005-8.522-.691-2.086.368-5.069 1.259-8.947 2.673l11.72 66.472c5.912.738 8.763-.793 8.554-4.593-.209-3.8-.35-6.963-.424-9.488l8.125-33.487a1 1 0 0 0-.75-1.21l-5.272-1.196c-2.186-3.167-3.469-5.828-3.849-7.982-.32-1.821-.018-4.497.91-8.028a2 2 0 0 0-1.545-2.47z" fill="#E4E4E4"/><g><path d="M200.188 206.751l37.676-28.085c5.655-9.012 11.463-16.21 17.425-21.594 1.895-1.123 5.343-2.127 2.872 4.178-2.471 6.304-4.787 13.046-2.856 14.61 1.93 1.564 5.758-1.538 8.18 1.17 1.614 1.807-5.089 5.96-20.108 12.46l-25.843 31.316-17.346-14.055zm66.577 9.872l16.545-12.366c1.171-9.923 3.502-15.16 6.992-15.713 2.512-1.628-.47 11.123 4.478 9.358 4.948-1.765 16.084-12.759 18.491-11.183 3.56 2.332 1.932 11.258-.802 15.968-5.11 8.804-9.883 12.24-22.122 17.58-6.399 2.793-13.077 7.526-20.033 14.2l-3.549-17.844z" fill="#997659"/><path d="M179.61 204.566c14.276-2.16 32.916-7.858 51.444-23.626l10.492 16.688c-12.075 15.893-30.197 30.104-47.516 32.044-13.649 1.53-22.907-13.934-14.42-25.106z" fill="#2026A2"/><path d="M202.875 230.423c15.71 1.651 40.535-6.388 74.475-24.118 11.437 17.082 17.37 29.573 17.798 37.472-28.398 20.312-53.663 31.14-75.238 34.652 2.492 12.74 2.645 25.175-1.037 37.075-7.57 24.463-73.762 12.095-94.426 19.265-19.382-41.34 3.883-62.516.018-90.166-4.232-30.28 13.536-80.302 17.114-80.805l32.628-4.586c5.05 22.87 17.693 47.08 28.668 71.211z" fill="#1F28CF"/></g><g><path d="M524.378 138.973c4.668-7.019 7.4-15.252 5.713-23.896-4.86-24.903-39.402-15.052-44.696-1.532-5.294 13.52-.531 45.582 8.601 46.761 3.643.47 10.893-2.667 17.987-8.189l-.661 34.346 28.375-3.484-15.32-44.006z" fill="#B28B67"/><path d="M499.774 96.946c3.665-1.068 13.683-2.723 15.54-2.95 1.187-.146 2.506-.035 3.076-1.203.466-.957.072-2.43.117-3.479.053-1.218.192-2.432.334-3.643.404-3.446 1.247-6.781 2.605-9.982 2.549-6.005 6.752-10.98 12.426-14.27 6.265-3.635 13.668-5.2 20.85-5.5 7.687-.323 14.882 1.326 22.357 2.791 7.122 1.396 14.402 1.396 21.43-.575 7.081-1.987 12.057-6.54 17.69-10.973 5.768-4.538 12.586-7.88 20.022-8.217 6.941-.315 13.624 1.726 19.773 4.794 5.752 2.87 10.662 6.57 13.872 12.231 3.454 6.09 4.317 13.135.63 19.345-5.346 9-16.882 12.575-26.722 13.569a54.177 54.177 0 0 1-16.983-.983c-7.454-1.618-14.15-5.09-21.258-7.702-3.336-1.226-6.742-2.15-10.26-2.686-3.412-.52-6.714-.545-9.458 1.8-2.903 2.482-5.483 4.886-8.937 6.64-3.314 1.684-6.9 2.838-10.6 3.263-7.195.828-14.555-.526-21.72-1.159-5.843-.515-12.084-.978-17.746.903-2.362.784-5.777 2.225-6.345 4.832 15.05.841 23.053 18.212 20.532 31.995-1.36 7.44-13.8 17.467-19.499 14.344-3.61-1.979-1.98-5.358-.931-7.586 2.01-4.267 2.239-9.458-2.718-11.648-4.276-1.889-7.772 4.272-7.852 4.276-1.105.049-11.22-4.102-18.69-11.055-6.385 1.168-7.877-2.922-6.764-6.554 1.113-3.631 10.165-9.141 15.229-10.618z" fill="#191847"/><path d="M573.194 283.17c-2.146 29.14-140.376 114.933-141.182 117.34-.359 1.07 13.983 34.889 43.025 101.456l-12.083 4.672c-44.546-70.5-65.675-109.505-63.387-117.017 3.276-10.755 39.026-46.136 107.25-106.141l66.377-.31z" fill="#B28B67"/><path d="M471.857 486.932l-19.728 7.146c-41.599-46.704-57.905-85.239-54.932-104.873 1.982-13.09 37.61-48.41 106.881-105.964h70.53c-2.406 67.485-130.528 117.526-132.242 120.402-1.713 2.876 15.151 31.041 29.491 83.29z" fill="#2F3676"/><path d="M479.098 499.084c2.622 2.992 4.241 5.336 4.86 7.034.724 1.991 1.444 5.02 2.158 9.086l-63.426 23.085c-3.596-4.75-3.696-7.985-.3-9.704a380.366 380.366 0 0 0 8.43-4.376l24.937-23.78a1 1 0 0 1 1.424.044l3.671 3.968c3.836.31 6.781.09 8.837-.658 1.738-.633 3.904-2.233 6.498-4.802a2 2 0 0 1 2.911.103z" fill="#E4E4E4"/><path fill="#997659" d="M557.3 283.17l61.578 147.097 60.521 124.358H665.12L508.898 283.17z"/><path d="M680.083 548.258c1.44 3.708 2.16 6.465 2.16 8.272 0 2.12-.36 5.211-1.078 9.276h-67.498c-1.754-5.693-.741-8.767 3.038-9.221 3.78-.454 6.918-.864 9.418-1.23l31.567-13.817a1 1 0 0 1 1.323.53l2.092 4.984c3.499 1.602 6.342 2.404 8.529 2.404 1.85 0 4.432-.764 7.748-2.29a2 2 0 0 1 2.7 1.092z" fill="#E4E4E4"/><path d="M673.934 528.791l-31.728 5.921c-24.532-35.888-127.2-183.04-138.456-251.542h70.634c37.59 49.52 76.166 209.14 99.55 245.621z" fill="#5C63AB"/><g><path d="M449.051 261.016l-45.01-13.507c-8.396-6.534-16.316-11.312-23.76-14.333-2.164-.407-5.748-.17-1.27 4.909 4.478 5.078 8.96 10.622 7.682 12.752-1.28 2.13-5.938.524-7.287 3.898-.899 2.249 6.82 3.86 23.157 4.831l34.996 20.59 11.492-19.14zm173.296-16.036l-23.564 7.756c29.846 42.272 45.817 64.657 47.913 67.155 4.716 5.623 2.39 17.274 1.748 23.338 8.82.942 3.854-11.545 15.035-10.183 10.206 1.243 19.379 6.522 27.57-3.122 1.006-1.186 1.436-4.559-2.642-5.76-10.157-2.995-25.367-9.07-28.05-11.825-3.66-3.756-16.33-26.21-38.01-67.359z" fill="#B28B67"/><path d="M521.458 165.667l-10.407-.497c-19.555 24.254-22.264 77.087-36.217 85.75-13.193 8.19-33.79 4.36-58.397-1.203l-5.238 17.008c24.258 20.532 72.282 34.498 89.402 21.056 27.372-21.49 26.365-86.117 20.857-122.114z" fill="#DB2721"/><path d="M581.609 288.257l-90.18 11.072c-4.12.506-4.075-5.538-3.848-8.612 2.622-35.488 24.873-76.126 18.818-125.44l25.512-7.271c25.763 31.951 38.433 73.63 49.698 130.25z" fill="#DDE3E9"/><path d="M586.297 252.077c22.454 30.895 40.837 52.865 55.15 65.911l18.447-6.022C638.45 237.968 596.347 186.58 533.59 157.799l-.297.037-10.002 1.228c-13.581 82.447-13.508 136.262.218 161.444l81.176-9.967c-3.662-19.21-10.295-39.186-18.387-58.464z" fill="#FF4133"/></g></g><g transform="rotate(-14 587.221 -949.55)"><path d="M50.828 54.607l-.007.016c.003-.005.007-.025.007-.016" fill="#C5CFD6"/><path d="M50.823 54.614v.005c0-.005.008-.02 0-.005M50.858 54.53c-.007.02-.016.039-.024.059l.012-.028a5.5 5.5 0 0 1 .012-.031" fill="#C5CFD6"/><path d="M50.836 54.59l-.012.028c-.03.056.012-.028.012-.028M50.825 54.614zM50.824 54.615l.001-.002-.001.002M50.82 54.622c-.007.012.027-.046 0 0M50.824 54.615l.002-.002-.002.002" fill="#C5CFD6"/><rect fill="#2B44FF" x=".575" y=".818" width="100" height="66" rx="4"/><g fill="#000" fill-opacity=".2"><path d="M38.37 20.093l-28.841 47h57.68z"/><path d="M68.105 32.682L42.61 67.092h50.993z"/></g><circle fill="#FFF" cx="79.017" cy="23.642" r="9.5"/></g></g></g></svg>