<svg data-name="Layer 1" xmlns="http://www.w3.org/2000/svg" width="763.895" height="628.236"><path d="M234.728 350.962c0-38.921 31.574-131.281 70.522-131.281s70.522 92.36 70.522 131.281a70.522 70.522 0 01-141.044 0z" fill="#f2f2f2"/><path d="M305.25 522.418a.58.58 0 01-.58-.58V278.867a.58.58 0 011.16 0v242.971a.58.58 0 01-.58.58z" fill="#3f3d56"/><path d="M305.25 325.774a.578.578 0 01-.41-.17l-27.912-27.893a.58.58 0 01.82-.82l27.912 27.894a.58.58 0 01-.41.99zM305.25 374.063a.58.58 0 01-.41-.989l46.745-46.713a.58.58 0 01.82.82l-46.745 46.712a.578.578 0 01-.41.17z" fill="#3f3d56"/><path d="M114.728 309.81c0-48.263 39.152-162.79 87.449-162.79s87.448 114.527 87.448 162.79a87.448 87.448 0 01-174.897 0z" fill="#e6e6e6"/><path d="M202.177 522.418a.719.719 0 01-.72-.719V220.41a.72.72 0 011.439 0V521.7a.719.719 0 01-.72.718z" fill="#3f3d56"/><path d="M202.177 278.576a.717.717 0 01-.509-.21l-34.612-34.588a.719.719 0 011.017-1.016l34.612 34.588a.719.719 0 01-.508 1.226zM202.177 338.456a.719.719 0 01-.509-1.227l57.964-57.925a.719.719 0 111.017 1.016l-57.964 57.925a.717.717 0 01-.508.21z" fill="#3f3d56"/><path d="M0 226.546C0 159.38 54.448 0 121.614 0s121.613 159.38 121.613 226.546a121.614 121.614 0 01-243.227 0z" fill="#6c63ff"/><path d="M121.614 522.418a1 1 0 01-1-1V102.134a1 1 0 112 0v419.284a1 1 0 01-1 1z" fill="#3f3d56"/><path d="M121.614 183.08a.997.997 0 01-.707-.293l-48.135-48.135a1 1 0 011.414-1.414l48.135 48.135a1 1 0 01-.707 1.707zM121.614 266.41a1 1 0 01-.707-1.707l80.61-80.61a1 1 0 111.414 1.413l-80.61 80.61a.997.997 0 01-.707.294zM762.895 523.162h-743a1 1 0 010-2h743a1 1 0 010 2z" fill="#3f3d56"/><path d="M703.936 443.995a2.617 2.617 0 100-5.234H679.08v-10.466h24.857a2.617 2.617 0 100-5.233H491.992a2.617 2.617 0 000 5.233h24.858v10.466h-24.858a2.617 2.617 0 000 5.234h24.858v10.466h-24.858a2.617 2.617 0 000 5.233h24.858v10.467h-22.241a5.233 5.233 0 000 10.466h21.173a3.9 3.9 0 00-.24 1.308v36.633a3.925 3.925 0 007.85 0v-36.633a3.9 3.9 0 00-.24-1.308h149.625a3.9 3.9 0 00-.24 1.308v36.633a3.925 3.925 0 007.85 0v-36.633a3.9 3.9 0 00-.24-1.308h21.173a5.233 5.233 0 100-10.466h-22.241v-10.467h24.857a2.617 2.617 0 100-5.233H679.08v-10.466zm-181.853-15.7h151.763v10.466H522.083zm151.763 41.866H522.083v-10.467h151.763zm0-15.7H522.083v-10.466h151.763z" fill="#3f3d56"/><path d="M318.284 478.385a8.322 8.322 0 00-8.488-9.53l-53.301-53.892-10.53 14.72 55.705 48.346a8.367 8.367 0 0016.614.356z" fill="#ffb8b8"/><path d="M289.035 451.266l-9.604 9.59a3.497 3.497 0 01-4.908.02l-37.175-36.55a13.637 13.637 0 1119.318-19.25l32.4 41.288a3.498 3.498 0 01-.03 4.902z" fill="#6c63ff"/><circle cx="245.323" cy="357.534" r="19.027" fill="#ffb8b8"/><path fill="#ffb8b8" d="M181.031 589.544l4.818 8.184 33.862-14.687-7.11-12.08-31.57 18.583z"/><path d="M182.474 585.883l9.488 16.119a11.92 11.92 0 01-4.226 16.319l-.334.196-15.534-26.39z" fill="#2f2e41"/><path fill="#ffb8b8" d="M236.852 619.03h9.498l4.518-36.634-14.017.001.001 36.633z"/><path d="M234.43 615.93l18.704-.002a11.92 11.92 0 0111.92 11.92v.387l-30.624.001zM198.669 596.835a3.48 3.48 0 01-2.807-1.42l-9.16-12.44a3.486 3.486 0 01.871-4.966l40.76-27.224-24.594-64.666 52.592 4.34 1.772 55.57a27.924 27.924 0 01-13.98 25.119l-43.712 25.219a3.475 3.475 0 01-1.742.468z" fill="#2f2e41"/><path d="M237.139 611.593a3.486 3.486 0 01-3.477-3.362l-1.928-54.137 23.867-1.257-1.9 54.525a3.476 3.476 0 01-3.254 3.357l-13.071.866c-.08.005-.158.008-.237.008z" fill="#2f2e41"/><path d="M254.418 501.21c-6.072 0-19.282-6.83-26.645-9.265-1.101.881-7.153 5.406-14.216 4.579-4.358-.511-8.195-2.978-11.404-7.333-7.086-9.617 7.205-45.168 15.795-78.073 3.613-13.842 11.866-28.003 25.858-24.965a26.782 26.782 0 0120.21 19.66c1.617 6.583.226 14.327-.79 19.982a27.157 27.157 0 00-.726 5.79c.498 3.99-4.732 66.54-6.513 69.211-.19.285-.738.413-1.569.413z" fill="#6c63ff"/><path d="M240.204 501.32a8.322 8.322 0 00.73-12.74l.376-75.798-17.853 2.972 5.244 73.573a8.367 8.367 0 0011.503 11.993z" fill="#ffb8b8"/><path d="M244.333 461.46h-19.229a3.497 3.497 0 01-3.486-3.455l-.472-52.13a13.637 13.637 0 1127.272.033l-.599 52.106a3.498 3.498 0 01-3.486 3.446z" fill="#6c63ff"/><path d="M240.478 376.482a19.305 19.305 0 01-18.44-15.45 22.211 22.211 0 01.712-10.081 27.078 27.078 0 0137.135-17.007c2.33 1.055 4.626 2.57 5.693 4.894s.4 5.574-1.935 6.62c-1.526.684-3.44.348-4.793 1.33-1.944 1.41-1.444 4.409-.576 6.647s1.85 4.948.395 6.858c-1.356 1.78-4.066 1.725-6.2 1.055s-4.243-1.792-6.468-1.564c-3.247.333-5.58 3.562-6.011 6.797s.584 6.467 1.588 9.573z" fill="#2f2e41"/><path d="M312.057 477.944c12.36-2.794 26.363 6.874 26.797 19.854.122 3.65-.948 7.484-3.757 9.968a9.245 9.245 0 01-8.769 2.082c-5.77-1.929-6.077-9.968-2.982-14.262 4.19-5.814 12.492-6.806 19.08-6.115a45.212 45.212 0 0122.131 9.217c12.859 9.69 21.047 24.54 27.674 38.889a196.07 196.07 0 0114.687 46.155q.561 3.002 1.028 6.02a1.17 1.17 0 001.44.79 1.192 1.192 0 00.791-1.44 198.66 198.66 0 00-14.9-50.403c-6.94-15.55-15.688-31.679-29.605-42.056a47.206 47.206 0 00-23.8-9.543c-7.299-.648-15.942.896-20.48 7.244-3.582 5.008-3.218 13.331 2.323 16.819a10.574 10.574 0 0010.08.202 12.909 12.909 0 006.805-8.437c1.968-7.208-1.02-15.005-6.141-20.158a25.812 25.812 0 00-18.168-7.64 22.877 22.877 0 00-4.884.582c-1.46.33-.807 2.561.65 2.232z" fill="#ccc"/><path d="M371.664 620.69l-7.681-13.114 9.47-5.548 7.682 13.114a5.488 5.488 0 01-9.471 5.548z" fill="#6c63ff"/><circle cx="346.268" cy="586.677" r="6.754" fill="#6c63ff"/><path d="M401.382 620.69l-7.68-13.114 9.47-5.548 7.68 13.114a5.488 5.488 0 01-9.47 5.548z" fill="#6c63ff"/><path d="M347.55 600.284a14.37 14.37 0 0114.354-14.353h45.436a6.074 6.074 0 016.067 6.067v5.17a17.49 17.49 0 01-17.47 17.47h-34.033a14.37 14.37 0 01-14.353-14.354z" fill="#3f3d56"/><path d="M358.029 622.38v-15.197h10.976v15.198a5.488 5.488 0 11-10.976 0zM389.878 622.38v-15.197h10.976v15.198a5.488 5.488 0 11-10.976 0z" fill="#3f3d56"/><path d="M434.535 562.253a6.754 6.754 0 0110.533 8.459l-11.103 13.824-10.533-8.46z" fill="#6c63ff"/><path d="M407.79 589.485l8.895-11.075a13.024 13.024 0 0118.289-1.996l2.779 2.232a15.528 15.528 0 012.38 21.805l-7.328 9.124a4.876 4.876 0 01-6.847.748l-17.42-13.99a4.876 4.876 0 01-.748-6.848z" fill="#3f3d56"/><path d="M435.857 560.607a4.644 4.644 0 117.24 5.816l-12.423 15.47-7.242-5.816zM418.058 586.465l19.09 15.332a6.754 6.754 0 11-8.459 10.533l-19.09-15.332z" fill="#3f3d56"/><ellipse cx="655.82" cy="746.684" rx="2.85" ry="1.583" transform="rotate(-51.23 405.087 906.143)" fill="#6c63ff"/><circle cx="608.643" cy="395.571" r="14.224" fill="#2f2e41"/><path fill="#a0616a" d="M573.245 517.272l-6.228-.001-2.963-24.022h9.192l-.001 24.023z"/><path d="M562.569 515.492h12.01v7.562h-19.573a7.563 7.563 0 017.563-7.562z" fill="#2f2e41"/><path fill="#a0616a" d="M563.523 513.796l-5.942-1.865 4.365-23.808 8.77 2.752-7.193 22.921z"/><path d="M553.87 508.901l11.46 3.596-2.265 7.216-18.676-5.86a7.563 7.563 0 019.48-4.952zM565.55 504.21a2.267 2.267 0 01-.8-.145l-4.58-1.718a2.294 2.294 0 01-1.43-2.633c1.153-5.187 5.085-22.845 7.237-32.317 2.553-11.234 39.799-13.322 41.383-13.405l.13-.007 4.19 5.265c1.514 4.866 1.034 8.662-1.426 11.282-7.18 7.644-28.615 2.9-31.17 2.3L567.69 502.74a2.293 2.293 0 01-2.14 1.472z" fill="#2f2e41"/><path d="M572.154 507.767a2.267 2.267 0 01-.799-.145l-4.582-1.718a2.294 2.294 0 01-1.43-2.634c1.154-5.186 5.086-22.845 7.238-32.317 2.554-11.234 39.799-13.322 41.383-13.405l.13-.007 4.19 5.265c1.514 4.866 1.034 8.662-1.426 11.282-7.18 7.643-28.615 2.9-31.17 2.3l-11.394 29.907a2.293 2.293 0 01-2.14 1.472z" fill="#2f2e41"/><path d="M558.897 434.604a5.346 5.346 0 01.45.712l25.055 2.64 3.606-4.945 8.175 4.467-7.084 12-30.728-7.835a5.332 5.332 0 11.526-7.04z" fill="#a0616a"/><path d="M617.121 464.821a2.286 2.286 0 01-1.04-.254c-5.01-2.548-14.767-6.96-23.813-7.883a2.231 2.231 0 01-1.573-.889 2.295 2.295 0 01-.423-1.783c.816-4.52 2.689-16.026 2.447-25.249a12.495 12.495 0 019.44-12.43 40.572 40.572 0 015.036-.992 12.596 12.596 0 0114 14.61c-1.613 9.558-3.24 22.907-1.826 32.225a2.29 2.29 0 01-.924 2.209 2.25 2.25 0 01-1.324.436z" fill="#ccc"/><path d="M593.183 440.512a2.284 2.284 0 01-.908-.19l-6.526-2.825a2.289 2.289 0 01-1.19-3.005l5.045-11.655a5.842 5.842 0 1110.723 4.64l-5.045 11.656a2.291 2.291 0 01-2.099 1.38z" fill="#ccc"/><circle cx="608.123" cy="398.899" r="12.477" fill="#a0616a"/><path d="M595.422 392.768a45.005 45.005 0 0019.47 6.416l-2.053-2.46a15.082 15.082 0 004.66.926 5.102 5.102 0 004.158-1.947 4.746 4.746 0 00.318-4.384 8.989 8.989 0 00-2.828-3.535 16.835 16.835 0 00-15.67-2.8 10.062 10.062 0 00-4.68 3.001c-1.182 1.46-3.46 2.76-2.854 4.537z" fill="#2f2e41"/><path d="M610.221 382.7a38.347 38.347 0 00-13.951-9.022 19.63 19.63 0 00-10.57-1.312c-3.525.71-6.86 3.148-7.843 6.608-.804 2.829.026 5.874 1.275 8.537s2.914 5.132 3.924 7.894a18.018 18.018 0 01-18.13 24.162c3.464.465 6.657 2.093 10.043 2.96s7.383.807 9.9-1.619c2.662-2.566 2.715-6.74 2.586-10.435l-.574-16.483c-.097-2.802-.18-5.693.83-8.308s3.412-4.905 6.215-4.882c2.125.018 4.005 1.306 5.71 2.575s3.507 2.624 5.623 2.812 4.533-1.377 4.375-3.496" fill="#2f2e41"/><path d="M587.146 461.616a5.59 5.59 0 112.155-10.751 5.368 5.368 0 01.667.337l22.728-10.204.639-6.164 9.797-.262-.065 10.262a5.527 5.527 0 01-3.993 5.254l-26.58 7.566a5.208 5.208 0 01-.183.518 5.611 5.611 0 01-5.165 3.444z" fill="#a0616a"/><path d="M622.302 439.602a2.284 2.284 0 01-.895.242l-7.098.437a2.289 2.289 0 01-2.422-2.141l-.78-12.677a5.842 5.842 0 1111.662-.717l.78 12.676a2.291 2.291 0 01-1.247 2.18z" fill="#ccc"/><rect x="783.016" y="595.223" width="43.688" height="3.556" rx="1.778" transform="rotate(180 695.834 529.06)" fill="#3f3d56"/><path d="M549.216 459.596v-24.893a3.306 3.306 0 013.302-3.302h45.212a3.306 3.306 0 013.302 3.302v24.893a3.306 3.306 0 01-3.302 3.302h-45.212a3.306 3.306 0 01-3.302-3.302z" fill="#3f3d56"/><circle cx="575.124" cy="447.149" r="3.048" fill="#fff"/><path d="M247.448 389.618h-11a4 4 0 010-8h11a4 4 0 010 8z" fill="#6c63ff"/></svg>