<svg width="869" height="721" xmlns="http://www.w3.org/2000/svg"><g transform="translate(97 67)" fill="none" fill-rule="evenodd"><path d="M159.248 197.823c-6.801-6.03-11.932-13.869-12.594-23.367-1.906-27.37 36.675-26.712 45.939-14.065 9.264 12.647 13.268 47.466 4.123 51.244-3.647 1.507-12.044.252-20.943-3.538l10.268 35.692-30.407 4.274 3.614-50.24z" fill="#B28B67"/><path d="M184.473 152.334c-.755-.318-2.335-.99-3.118-1.203-.185-.052-1.531-.752-1.563-.737-.882.443-3.401 1.973-3.492 3.001-.025.08-.05.157-.075.223-.283.744-.532 1.5-.764 2.264-.51 1.675-.908 3.406-1.28 5.121-.727 3.34-1.288 6.732-1.767 10.12-.487 3.45-.824 6.917-1.262 10.373-.63 4.973-1.641 9.88-2.262 14.85-.397 3.173-.422 6.33.237 9.447.008.037.014.074.023.112l.011.047c.105.478.226.956.365 1.432.12.407.24.816.364 1.224.85-2.522 1.388-5.245 2-7.843.06-.255.115-.51.168-.766.238-.544.483-1.084.732-1.623 1.57-3.399 3.15-6.787 4.629-10.23 2.66-6.194 5.272-12.504 8.641-18.321.995-1.718 2.022-3.417 3-5.145a76.137 76.137 0 0 0 1.605-2.988c.367-.722 2.04-3.292 1.125-4.567-.469-.652-5.359-3.967-7.317-4.791z" fill="#2C2C2C"/><path d="M181.591 151.215c.71.132.182-1.23-.544-1.634-3.362-1.87-15.099-1.07-24.915 2.45-6.577 2.357-13.963 6.962-18.742 12.22-4.307 4.74-6.748 11.71-7.592 18.233-.887 6.848-.195 13.76 1.765 20.38.43 1.454 1.106 2.803 1.576 4.219.53 1.595.905 3.15 1.662 4.667.464.93 1.153 1.807 1.57 2.749.475 1.074.427 2.137.355 3.307-.118 1.908-.326 3.826-.744 5.69-.626 2.802-1.49 5.464-1.863 8.332-.497 3.816-3.053 16.365.5 19.188l58.938-8.283c-2.053-3.838-7.177-7.974-8.688-12.18-.89-2.476-1.925-8.013-2.01-8.208-2.614-8.965-5.821-12.97-7.668-14.328-1.847-1.358-4.08-1.541-4.384-2.902-1.26-5.625.237-11.395 1.15-16.938 1.09-6.607 1.627-13.297 2.78-19.891.51-2.92 3.171-17.758 6.854-17.071z" fill="#8991DC"/><path d="M161.847 160.665c-1.232 7.36-1.181 11.19.65 20.754l-1.09.154c-3.314-8.803-2.704-17.614-.93-20.716l1.37-.192zm-27.26 22.381c5.553 9.463 8.275 15.13 20.983 21.633l-.805.75c-12.395-4.89-16.83-12.178-20.99-21.842l.812-.54zm15.58-12.614c3.885 13.994 5.579 22.061 17.57 36.28l-.997.465c-11.994-12.162-15.15-23.02-17.535-36.53l.962-.215zm-4.872 43.875l.74-1.21c12.707 2.101 12.457 10.16 28.908 15.973l-1.173.956c-14.202-3.651-19.01-15.088-28.475-15.719z" fill-opacity=".2" fill="#000"/><g transform="translate(0 348.258)"><path d="M327.1 23.093c9.215-12.427 32.247-4.2 32.233 6.087-.036 27.01-24.824 155.24-26.118 163.335-1.294 8.096-15.158 10.744-15.965.628-1.285-16.095-3.672-71.892-1.284-97.85.698-7.583 1.433-14.912 2.174-21.778-13.027 23.272-32.837 56.166-59.429 98.68l-14.78-6.714c11.607-38.024 21.123-64.868 28.55-80.532 12.718-26.82 24.643-49.789 29.662-57.88 6.63-10.686 17.382-9.267 24.958-3.976z" fill="#B28B67"/><path d="M244.988 144.365l50.727-119.496c12.152-19.44 46.224 3.955 42.08 15.23-9.409 25.596-57.259 108.463-60.062 116.09l-32.745-11.824z" fill="#1F28CF"/><path d="M360.617 38.51c0 33.87-14.93 113.487-14.94 120.946l-36.168-1.213c6.322-69.222 8.989-104.068 7.999-104.537-2.228-1.055-91.305 12.26-118.02 13.265-38.525 1.45-54.462-22.052-55.755-66.651h74.623c63.81 7.574 105.747 12.842 125.814 15.803 12.887 1.902 16.447 13.056 16.447 22.387z" fill="#2B44FF"/><path d="M242.287 161.15c-2.52 3.594-4.021 6.354-4.501 8.28-.556 2.23-.995 5.578-1.317 10.044l69.978 17.448c3.313-5.541 3.07-9.04-.728-10.494a400.514 400.514 0 0 1-9.442-3.73l-29.147-22.744a1 1 0 0 0-1.42.194l-3.521 4.765c-4.048.783-7.205.892-9.473.327-1.938-.483-4.447-1.98-7.528-4.492a2 2 0 0 0-2.901.402zM315.493 173.465c-1.576 4.097-2.364 7.138-2.364 9.122 0 2.3.384 5.655 1.152 10.066h72.12c1.875-6.178.793-9.514-3.245-10.006a400.514 400.514 0 0 1-10.063-1.335l-33.784-15.017a1 1 0 0 0-1.33.531l-2.265 5.476c-3.738 1.74-6.775 2.609-9.112 2.609-1.997 0-4.794-.846-8.391-2.537a2 2 0 0 0-2.718 1.091z" fill="#E4E4E4"/><rect fill="#2F3676" x="314.417" y="192.699" width="68.017" height="8.933" rx="4"/><path d="M137.05 7.657h142.983c5.523 0 10 4.477 10 10V82.95H131.05a4 4 0 0 1-4-4V17.657c0-5.523 4.477-10 10-10z" fill="#2F3676"/><path d="M277.2 7.657h5.229a10 10 0 0 1 9.866 8.37l28.538 172.843H307.12" fill="#2F3676"/><ellipse fill="#191847" cx="314.417" cy="191.423" rx="23.1" ry="22.971"/><g fill="#191847"><path d="M143.733 211.841c-53.866 0-97.533-43.423-97.533-96.987 0-53.565 43.667-96.988 97.533-96.988 53.867 0 97.534 43.423 97.534 96.988 0 53.564-43.667 96.987-97.534 96.987zm0-17.866c43.944 0 79.567-35.424 79.567-79.121 0-43.698-35.623-79.122-79.567-79.122-43.943 0-79.566 35.424-79.566 79.122 0 43.697 35.623 79.12 79.566 79.12z"/><path d="M138.6 30.628h10.267V199.08H138.6z"/><path d="M201.406 53.09l4.423 4.398a2 2 0 0 1 0 2.836L88.88 176.617a2 2 0 0 1-2.82 0l-4.423-4.398a2 2 0 0 1 0-2.836L198.585 53.09a2 2 0 0 1 2.82 0z"/><path d="M228.433 111.749v6.21a2 2 0 0 1-2 2h-165.4a2 2 0 0 1-2-2v-6.21a2 2 0 0 1 2-2h165.4a2 2 0 0 1 2 2z"/><path d="M205.829 172.219l-4.423 4.398a2 2 0 0 1-2.82 0L81.637 60.324a2 2 0 0 1 0-2.836l4.423-4.398a2 2 0 0 1 2.82 0L205.83 169.383a2 2 0 0 1 0 2.836z"/></g></g><g><path d="M262.36 288.721l49.137-13.856c9.24-6.969 17.93-12.028 26.07-15.18 2.359-.401 6.247-.072 1.29 5.385-4.957 5.456-9.926 11.42-8.576 13.771 1.35 2.35 6.44.69 7.843 4.4.936 2.474-7.478 4.08-25.24 4.817l-38.39 21.788-12.134-21.125zM106.62 322.404l27.797-3.8C113.563 391.273 102.71 429.31 101.86 432.72c-1.916 7.67 5.85 17.85 9.342 23.417-8.11 5.079-9.2-9.355-19.403-2.755-9.313 6.024-15.715 15.467-28.222 10-1.538-.672-3.55-3.734-.163-6.824 8.438-7.697 20.32-20.763 21.621-24.697 1.774-5.365 8.969-41.85 21.585-109.458z" fill="#997659"/><path d="M170.366 223.811l21.957-1.612c12.152 47.596 45.625 74.034 109.508 54.513l17.43 61.043c-59.959 16.455-116.941-.406-137.197-64.894-5.244-16.694-9.987-34.167-11.698-49.05z" fill="#AFB9C5"/><path d="M158.748 219.011l34.017 2.898c7.947 56.548 31.075 90.088 46.18 130.362l-89.013 12.51c.766 14.542 2.07 29.416 3.8 44.638l-66.649 9.367c3.837-82.283 27-148.78 69.486-199.489l2.159-.303.02.017z" fill="#C5CFD6"/><path d="M152.638 282.134c2.659 35.56 7.787 62.261 15.386 80.104l-18.092 2.543c-1.515-28.808-.912-56.315 2.706-82.647z" fill-opacity=".1" fill="#000"/></g><g><path d="M506.038 92.964c5.009-7.584 7.936-16.483 6.117-25.83-5.242-26.93-42.338-16.31-48.014-1.696-5.675 14.614-.53 49.283 9.28 50.566 3.913.511 11.7-2.874 19.314-8.838l-.68 37.133 30.477-3.742-16.494-47.593z" fill="#B28B67"/><path d="M487.026 73.265c.828 16.387-1.261 24.887-6.266 25.502-7.509.922-14.464-3.06-17.759-2.656-2.402.295-1.497 3.233.369 5.265 1.539 1.676 8.152 2.662 8.502 5.511.35 2.849-4.974 1.265-4.767 2.955.344 2.795.1 8.159 4.954 7.563 4.91-.603 18.773-4.121 20.291-11.703.98-4.894.791-14.761-.568-29.603a7.675 7.675 0 0 1 7.83 12.245 116.344 116.344 0 0 0 6.957 7.03c7.879-6.145 12.357-21.851 2.28-35.175-3.16-6.744-8.825-9.859-15.184-10.847-5.234-1.47-10.43-1.07-14.64.713-8.46 1.783-15.777 5.327-17.75 7.14.993 8.093 2.856 10.301 16.229 8.444 3.506 1.334 6.404 4.016 9.522 7.616z" fill="#191847"/><path fill="#997659" d="M543.733 248.039l-47.01 161.084-22.11 120.945H452.42l22.153-282.03z"/><path d="M564.86 248.039c-3.28 83.682-1.987 129.325-1.252 136.928.734 7.603 4.901 58.522 33.302 147.653h-23.082c-37.612-85.506-50.742-136.425-55.056-147.653-4.314-11.228-17.054-56.87-35.655-136.928h81.743z" fill="#B28B67"/><path d="M544.742 248.039c-12.227 55.43-33.376 143.91-63.447 265.44h-32.46c-2.397-124.74 7.802-206.839 25.464-265.44h70.443z" fill="#69A1AC"/><path d="M565.024 248.039c-3.213 83.682 5.113 166.126 30.902 266.742h-34.633c-37.68-84.23-64.688-166.266-83.145-266.742h86.876z" fill="#89C5CC"/><path d="M600.2 549.168l-1.269-20.4c-7.43 2.166-16.736 1.316-27.918-2.55-12.155 8.585-27.492 14.418-46.01 17.497a2 2 0 0 0-1.596 2.52l1.922 6.758h72.333l2.538-3.825zM479.567 549.168l-1.27-20.4c-7.43 2.166-16.735 1.316-27.917-2.55-12.156 8.585-27.492 14.418-46.01 17.497a2 2 0 0 0-1.596 2.52l1.922 6.758h72.333l2.538-3.825z" fill="#191847"/><g><path d="M435.76 241.522l-36.917 34.695c-10.638 4.312-19.378 9.125-26.218 14.439-1.55 1.8-3.263 5.268 3.9 3.825 7.164-1.443 14.764-2.639 16.063-.3 1.3 2.337-2.714 5.817-.29 8.889 1.617 2.048 7.288-4.282 17.014-18.989l38.13-21.548-11.682-21.011zm155.875-18.098l-26.563 3.367c22.897 50.825 35.198 77.774 36.903 80.846 3.836 6.914-1.03 18.757-2.963 25.038 9.149 2.806 6.464-11.417 18.028-7.683 10.556 3.408 19.183 10.873 29.849 2.355 1.311-1.048 2.462-4.526-1.609-6.634-10.143-5.25-25.002-14.796-27.276-18.26-3.102-4.722-11.892-31.065-26.37-79.03z" fill="#B28B67"/><path d="M502.454 121.46l-11.227-.53c-36.484 40.167-44.949 109.768-90.567 151.69l13.865 13.405c85.445-21.368 96.833-106.395 87.93-164.564z" fill="#E87613"/><path d="M567.317 253.425l-97.3 11.947c-4.446.546-4.394-5.96-4.148-9.271 2.838-38.207 26.857-81.965 20.339-135.055l27.526-7.836c27.787 34.392 41.445 79.26 53.583 140.215z" fill="#DDE3E9"/><path d="M553.273 145.515c3.933-1.67 6.826-4.792 8.68-9.368 7.991-19.723 3.038-29.434-8.335-31.43-11.373-1.995-20.304 6.089-37.77 8.233-.95.117-1.813.283-2.589.499l-8.725 1.579c-14.744 88.317-14.715 146.029.088 173.136l76.582-9.403c5.833 9.997 11.266 18.344 16.297 25.04l20.867-2.562c-5.813-63.583-27.512-115.491-65.095-155.724z" fill="#FF9B21"/><path d="M559.154 237.041c.06 20.398-2.064 35.468-6.37 45.21l28.42-3.49c-6.804-11.661-14.154-25.568-22.05-41.72z" fill-opacity=".1" fill="#000"/></g></g><circle fill-opacity=".8" fill="#EAE1A6" cx="334.5" cy="154.5" r="69.5"/></g></svg>