<svg width="869" height="721" xmlns="http://www.w3.org/2000/svg"><g fill="none" fill-rule="evenodd"><path d="M151.262 249.49c-4.608-5.409-7.726-12.037-7.205-19.465 1.501-21.4 31.292-16.692 37.086-5.891 5.795 10.801 5.107 38.199-2.383 40.13-2.986.77-9.349-1.117-15.825-5.02L167 288h-24l8.262-38.51z" fill="#B28B67"/><path d="M191.776 209.16c-.497-1.747-1.834-3.242-3.636-3.686a4.789 4.789 0 0 0-1.337-.133c-.161.006-.207.053-.282-.06-.056-.083-.057-.288-.08-.386a7.28 7.28 0 0 0-.272-.901c-.377-1.002-1.01-1.89-1.774-2.637-1.428-1.398-3.358-2.363-5.363-2.537-1.098-.096-2.187.083-3.225.44-.537.184-1.058.415-1.565.669-.153.077-.648.452-.801.427-.17-.026-.51-.447-.648-.553-1.7-1.305-3.802-1.818-5.921-1.803-2.392.018-4.695.138-6.69 1.596a13.38 13.38 0 0 0-1.208 1.002 10.55 10.55 0 0 0-.91.96c-.18.218-.15.29-.4.137-.96-.583-2.073-.856-3.194-.718a7.146 7.146 0 0 0-1.928.544c-.209.09-.693.447-.916.45-.222.004-.7-.327-.927-.411a7.6 7.6 0 0 0-3.853-.357c-1.335.217-2.646.75-3.777 1.485-.544.355-1.019.747-1.4 1.273-.165.227-.313.468-.5.679-.11.123-.325.25-.384.406.035-.094-1.46-.67-1.601-.707a3.944 3.944 0 0 0-2.253.086c-1.384.455-2.574 1.477-3.552 2.524a10.086 10.086 0 0 0-1.315 1.766c-.18.303-.343.615-.492.934-.073.154-.12.347-.216.486-.124.18-.206.183-.43.261-1.132.397-2.164 1.069-2.95 1.976a6.803 6.803 0 0 0-1.528 3.24c-.013.07-.02.36-.062.398-.056.053-.284.03-.37.04a7.787 7.787 0 0 0-.887.156 7.321 7.321 0 0 0-1.56.56c-1.933.958-3.316 2.751-3.993 4.77-.71 2.119-.698 4.546.15 6.625.138.335.301.661.493.97.117.189.155.19.079.388-.085.22-.24.435-.342.651a9.352 9.352 0 0 0-.706 2.215c-.24 1.252-.358 2.567-.122 3.829.11.585.3 1.158.591 1.68a4.819 4.819 0 0 0 .842 1.099c.064.063.149.118.204.19.134.172.162.03.093.283-.097.354-.316.703-.45 1.048-.139.355-.264.715-.378 1.078a15.906 15.906 0 0 0-.55 2.248c-.236 1.463-.195 3.022.497 4.365.296.574.72 1.078 1.236 1.47.252.192.525.357.811.493.147.07.335.1.402.242.073.153-.035.457-.06.628-.212 1.488-.319 3.05.124 4.51a6.23 6.23 0 0 0 2.47 3.314c2.259 1.523 5.305 1.437 7.679.218a8.062 8.062 0 0 0 1.714-1.178c1.316 1.77 4.022 1.714 5.944 1.21 2.395-.629 4.317-2.294 5.424-4.482 1.514 1.843 4.691 1.245 5.74-.754.258-.49.41-1.029.485-1.575.04-.287.015-.576.044-.86.038-.364.28-.716.42-1.067.27-.683.44-1.389.447-2.125.003-.385-.045-.76-.082-1.141-.033-.344.062-.664.117-1.003-.615.101-1.363-.064-1.942-.242-.567-.175-1.1-.635-1.5-1.056-.93-.976-1.5-2.256-1.888-3.53-.854-2.794-.504-6.148 2.308-7.682 1.31-.715 5.233-.712 6.793-.36 1.64.372 3.5 3.991 3.592 4.332.056.21.028.47.221.611.425.308 1.126-.227 1.44-.491.54-.456.927-1.063 1.26-1.678a20.755 20.755 0 0 0 1.731-4.243c.32-1.13.524-2.296.942-3.398.416-1.097 1.071-2.077 2.09-2.698 1.11-.676 2.38-1.032 3.597-1.456 1.207-.421 2.393-.935 3.328-1.828.206-.197.405-.405.57-.636.131-.183.26-.532.46-.648.31-.18.76.288 1.029.458 1.32.839 2.422 2.008 3.31 3.286.884 1.27 1.609 2.493 2.198 3.912.437 1.053.71 2.4 1.478 3.263.343.385 2.894.618 3.72.282.826-.336 1.752-1.21 2.03-1.756.283-.56.351-1.176.23-1.789-.072-.36-.217-.697-.297-1.051-.067-.298-.128-.58-.273-.852a2.1 2.1 0 0 0-1.309-1.043 6.147 6.147 0 0 0 1.414-1.917c.35-.754.648-1.671.732-2.499.068-.672-.037-1.368-.405-1.946-.386-.606-1.07-1-1.662-1.379a10.807 10.807 0 0 0 2.313-2.519c1.237-1.85 2.002-4.184 1.374-6.392z" fill="#191847"/><path d="M124.644 368c1.803 24.61 117.963 97.064 118.64 99.096.302.904-11.75 29.464-36.156 85.682l10.154 3.946c37.434-59.539 55.19-92.48 53.267-98.824-2.753-9.083-32.795-38.962-90.127-89.638L124.644 368z" fill="#B28B67"/><path d="M209.8 540.082l16.579 6.035c34.957-39.443 48.66-71.986 46.161-88.568-1.666-11.054-31.604-40.884-89.816-89.489h-59.269c2.022 56.993 109.688 99.253 111.128 101.682 1.44 2.429-12.732 26.215-24.783 70.34z" fill="#2F3676"/><path d="M203.392 550.84c-2.072 2.423-3.362 4.332-3.87 5.725-.616 1.695-1.234 4.27-1.853 7.727l53 19.29c3.035-4.052 3.135-6.8.3-8.242a312.366 312.366 0 0 1-7.037-3.676l-20.637-19.948a1 1 0 0 0-1.434.045l-2.981 3.265c-3.214.282-5.68.11-7.397-.515-1.395-.508-3.117-1.773-5.166-3.795a2 2 0 0 0-2.925.124z" fill="#E4E4E4"/><path fill="#997659" d="M138 368L86.254 492.227 35.396 597.25h11.999L178.674 368z"/><path d="M34.678 592.402C33.56 595.388 33 597.623 33 599.106c0 1.803.3 4.434.901 7.894h56.402c1.466-4.845.62-7.461-2.538-7.848a312.366 312.366 0 0 1-7.87-1.046L53.68 586.419a1 1 0 0 0-1.332.532l-1.685 4.088c-2.923 1.364-5.299 2.046-7.126 2.046-1.485 0-3.536-.6-6.153-1.8a2 2 0 0 0-2.706 1.117z" fill="#E4E4E4"/><path d="M39.989 575.433l26.662 5C87.266 550.125 173.54 425.852 183 368h-59.356C92.054 409.821 59.64 544.624 39.99 575.433z" fill="#5C63AB"/><g><path d="M226 343.617l36.235-15.913c6.347-6.325 12.476-11.132 18.388-14.422 1.767-.563 4.787-.733 1.565 3.973-3.222 4.706-6.4 9.801-5.112 11.45 1.288 1.65 5.017-.17 6.49 2.511.983 1.788-5.304 3.927-18.859 6.417l-27.137 20.806L226 343.617zM79.508 348L100 352.066c-20.608 38.405-31.66 58.76-33.155 61.064-3.365 5.185-.225 14.687.934 19.691-7.275 1.694-4.406-9.256-13.612-6.97-8.403 2.087-15.528 7.442-23.363.22-.963-.888-1.669-3.664 1.616-5.087 8.183-3.547 20.272-10.188 22.232-12.766 2.674-3.516 10.959-23.589 24.856-60.218z" fill="#B28B67"/><path d="M155.695 271.332l8.647-1.483c18.834 18.27 26.52 62.163 39.072 67.973 11.867 5.494 28.69.178 48.686-7l6.124 13.683c-18.169 19.656-56.875 36.262-72.564 26.782-25.084-15.157-30.874-69.293-29.965-99.955z" fill="#DB2721"/><path d="M118 380h76.511c3.497 0 2.838-5.048 2.332-7.596-5.832-29.4-28.602-61.092-28.602-102.943L146.171 266c-18.254 29.358-24.566 65.505-28.171 114z" fill="#DDE3E9"/><path d="M110.369 350.233C94.77 378.368 81.66 398.623 71.037 411L55 407.859C65.33 343.79 95.247 296.504 144.748 266H153.486c19.813 67.537 25.275 112.537 16.386 135H101c1.09-16.437 4.583-33.819 9.369-50.767z" fill="#FF4133"/></g><g><path d="M473.985 261.4c-1.041-7.029-.173-14.303 4.205-20.326 12.613-17.352 35.382 2.426 34.573 14.657-.81 12.23-15.912 35.1-23.287 32.769-2.94-.93-7.337-5.9-10.76-12.642l-11.791 26.54-20.353-12.718 27.413-28.28z" fill="#B28B67"/><path d="M481.827 264.525c-5.551 3.268-11.321 4.735-14.809 2.556-6.624-4.14-5.8-15.938.15-25.46.21-.334.424-.662.643-.984-10.012.43-21.334 6.533-30.605.74-12.614-7.882-1.725-36.454 15.897-25.442 11.985 7.49 16.789 12.92 20.254 18.68 2.768-2.2 5.78-3.62 8.685-4.111.765-.225 1.757-.279 2.926-.172.73.042 1.443.152 2.135.33 3.768.79 8.702 2.768 13.768 5.693a66.467 66.467 0 0 1 2.74 1.67c2.934-4.662 9.089-6.075 13.763-3.154 4.684 2.927 6.108 9.096 3.182 13.78-2.83 4.53-8.694 6.01-13.313 3.456-3.05-.809-6.698-2.283-10.494-4.315-.477 1.551-1.23 3.183-2.296 4.89-.943 1.508-2.108 3.004-3.43 4.436-.203-1.433-.876-2.706-1.949-3.376-3-1.875-6.63-.712-8.268 1.908-2.078 3.326-1.661 6.932 1.021 8.875z" fill="#191847"/><path d="M363.408 466.088c23.99 6.71 44.686 10.065 62.092 10.065 17.405 0 33.572-5.167 48.5-15.5-23.476-6.887-42.81-10.33-58-10.33-15.19 0-32.722 5.255-52.592 15.765z" fill="#1F28CF"/><path d="M446.267 485.824a5.657 5.657 0 0 1-.582-1.135C442.48 476.209 391.117 384.726 386 368h57.826c3.89 12.717 21.401 92.52 23.865 108.442 7.776 25.115 23.784 106.453 25.828 112.088 2.15 5.928-9.947 12.103-13.17 4.816-5.13-11.596-17.35-43.68-22.792-63.272-5.101-18.366-9.255-34.89-11.29-44.25z" fill="#997659"/><path d="M398.957 496.994c-23.482 5.934-109.373 16.664-115.267 18.347-6.064 1.73-11.38-10.767-3.885-13.474 11.925-4.308 44.784-14.261 64.707-18.323 16.024-3.267 30.647-5.933 40.464-7.494-.831-27.577-4.633-93.756-2.141-108.05H434c-2.39 13.707-22.59 113.718-26.344 123.729-1.192 3.573-4.747 5.153-8.699 5.265z" fill="#B28B67"/><path d="M280.349 498.539c-3.135-.583-5.433-.746-6.893-.489-1.776.313-4.316 1.066-7.618 2.259l9.794 55.545c5.026.602 7.455-.686 7.288-3.863-.168-3.177-.28-5.82-.336-7.932l6.957-27.846a1 1 0 0 0-.756-1.219l-4.318-.95c-1.85-2.642-2.935-4.863-3.252-6.663-.258-1.462-.023-3.586.703-6.37a2 2 0 0 0-1.57-2.472zM476.678 592.402c-1.119 2.986-1.678 5.221-1.678 6.704 0 1.803.3 4.434.901 7.894h56.402c1.466-4.845.62-7.461-2.538-7.848a312.366 312.366 0 0 1-7.87-1.046l-26.215-11.687a1 1 0 0 0-1.332.532l-1.685 4.088c-2.923 1.364-5.299 2.046-7.126 2.046-1.485 0-3.536-.6-6.153-1.8a2 2 0 0 0-2.706 1.117z" fill="#E4E4E4"/><path d="M383 368c22.547-6.45 43.88-6.45 64 0 7 31.937 24.009 44.613 27 93.579-34 16.894-76-12.049-111 4.426-10-23.044 4-78.54 20-98.005z" fill="#2B44FF"/><g><path d="M496.227 389.081l16.542 35.952c6.435 6.236 11.349 12.28 14.741 18.133.594 1.758.817 4.774-3.945 1.635-4.761-3.14-9.911-6.227-11.538-4.911-1.626 1.316.259 5.013-2.397 6.533-1.77 1.013-4.019-5.235-6.745-18.744l-21.276-26.77 14.618-11.828zm-118.782-41.42l19.48 7.565c-26.974 34.263-41.397 52.4-43.27 54.41-4.216 4.525-2.775 14.433-2.502 19.565-7.46.405-2.732-9.886-12.198-9.232-8.64.596-16.59 4.636-23.053-3.842-.795-1.042-1.007-3.9 2.475-4.732 8.678-2.073 21.74-6.517 24.12-8.717 3.244-3 14.893-21.34 34.948-55.018z" fill="#B28B67"/><path d="M464.312 287.079l8.604 1.714c.571 40.055 12.727 80.918 36.467 122.587l-38.375 21.749c-19.12-53.696-24.463-103.573-6.696-146.05z" fill="#191847"/><path d="M390.177 375.02l71.886 27.595c-1.11-46.887 3.767-84.483 14.632-112.787l-20.444-11.555c-27.563 20.867-45.329 52.765-66.074 96.747z" fill="#DDE3E9"/><path d="M455.786 278.112l.015-.012 1.415.544a975.27 975.27 0 0 1 7.618 3.286l-.508 16.985c-6.454 18.47-17.34 56.504-32.66 114.104l-47.122-18.089a306.686 306.686 0 0 0-3.83 11.805l-35.038-13.45c27.939-57.117 64.638-95.515 110.099-115.195l.011.022z" fill="#2F3676"/><path d="M406.426 347.23c-7.803 24.336-10.748 42.045-8.837 53.13l-13.174-5.057c6.002-17.36 13.339-33.384 22.01-48.072z" fill-opacity=".1" fill="#000"/><path fill-opacity=".2" fill="#FFF" d="M406.001 370.383l27.383-1.883-4.147 10.803z"/></g></g><g><path d="M663.743 266.004c3.382-6.249 5.055-13.38 3-20.537-5.917-20.621-34.078-9.822-37.5 1.948-3.423 11.77 2.947 38.426 10.674 38.757 3.081.132 8.913-3.036 14.436-8.2l2.002 28.972 23.476-4.99-16.088-35.95z" fill="#B28B67"/><path d="M666.548 270.333c.16-13.735 6.655-24.454 4.127-30.04-1.684-3.725-4.479-5.67-8.382-5.835-3.56-7.337-10.434-9.318-20.62-5.944-15.281 5.06-23.452 13.59-16.287 27.014 3.792-.806 8.078-3.15 14.906-2.146 2.167.318 4.095 2.325 5.784 6.019l2.86-.608c1.798-5.192 4.176-7.465 7.133-6.82 2.958.647 4.201 3.48 3.73 8.499l3.706 10.508 3.043-.647z" fill="#191847"/><path fill="#997659" d="M732 368l-74.306 124.227-55.709 105.023h-11.999L683.326 368z"/><path d="M609.322 592.402c1.119 2.986 1.678 5.221 1.678 6.704 0 1.803-.3 4.434-.901 7.894h-56.402c-1.466-4.845-.62-7.461 2.538-7.848 3.158-.386 5.781-.735 7.87-1.046l26.215-11.687a1 1 0 0 1 1.332.532l1.685 4.088c2.923 1.364 5.299 2.046 7.126 2.046 1.485 0 3.536-.6 6.153-1.8a2 2 0 0 1 2.706 1.117z" fill="#E4E4E4"/><path d="M617.457 580.433l-23.14-7c10.138-30.308 22.564-63.661 37.278-100.059C646.308 436.977 662.11 401.852 679 368h65.356c-18.778 42.821-38.685 81.73-59.722 116.725-21.036 34.996-43.429 66.899-67.177 95.708z" fill="#DB2721"/><path d="M736.883 368c7.014 43.654 20.54 99.427 21.816 101.149.851 1.147 31.488 11.413 91.911 30.798l-2.592 10.58c-72.054-10.395-110.02-18.461-113.899-24.196C728.301 477.728 699.252 409.763 688 368h48.883z" fill="#B28B67"/><path d="M829.37 490.8l-4.565 17.042c-53.892 4.727-86.913 1.311-99.063-10.246-12.15-11.557-25.997-54.756-41.54-129.596h62.32c9.848 61.284 15.354 93.212 16.518 95.785 1.163 2.572 23.273 11.578 66.33 27.015z" fill="#FF4133"/><path d="M847.651 495.539c3.135-.583 5.433-.746 6.893-.489 1.776.313 4.316 1.066 7.618 2.259l-9.794 55.545c-5.026.602-7.455-.686-7.288-3.863.168-3.177.28-5.82.336-7.932l-6.957-27.846a1 1 0 0 1 .756-1.219l4.318-.95c1.85-2.642 2.935-4.863 3.252-6.663.258-1.462.023-3.586-.703-6.37a2 2 0 0 1 1.57-2.472z" fill="#E4E4E4"/><g><path d="M623.154 365.78l-38.79 9.121c-8.948-1.27-16.797-1.444-23.547-.518-1.763.618-4.292 2.316 1.16 4.174 5.452 1.857 11.104 4.058 11.074 6.178-.03 2.12-4.134 2.91-3.685 5.981.299 2.047 6.65-.04 19.053-6.26l34.461.376.274-19.052zm119.068-35.917l-20.414 7.924c41.78 41.84 63.607 63.766 65.48 65.776 4.216 4.525 2.775 14.433 2.502 19.565 7.46.405 2.732-9.886 12.198-9.232 8.64.596 16.59 4.636 23.053-3.842.795-1.042 1.007-3.9-2.475-4.732-8.678-2.073-21.74-6.517-24.12-8.717-3.244-3-21.985-25.247-56.224-66.742z" fill="#997659"/><path d="M661.337 286.52l-15.597 7.211c9.749 37.177-3.076 67.947-54.078 78.774l11.243 48.38c47.162-11.442 79.663-44.558 69.042-96.364-2.75-13.41-6.135-27.166-10.61-38z" fill="#AFB9C5"/><path d="M667.448 278.837l-22.12 14.863c16.012 41.712 12.94 73.425 17.898 106.708l65.496-25.141c4.99 10.242 9.738 20.917 14.328 31.99l49.041-18.825c-33.81-54.864-74.826-91.605-123.048-110.225l-1.588.61-.007.02z" fill="#C5CFD6"/><path d="M695.546 319.726c11.666 25.344 18.287 45.561 19.865 60.65l13.311-5.11c-9.886-20.29-20.725-38.888-33.176-55.54z" fill-opacity=".1" fill="#000"/></g></g></g></svg>