<svg width="869" height="721" xmlns="http://www.w3.org/2000/svg" xmlns:xlink="http://www.w3.org/1999/xlink"><defs><rect id="b" x="0" y="0" width="251" height="516" rx="36.45"/><filter x="-28.7%" y="-7.8%" width="149.4%" height="124%" filterUnits="objectBoundingBox" id="a"><feOffset dx="-10" dy="22" in="SourceAlpha" result="shadowOffsetOuter1"/><feGaussianBlur stdDeviation="17" in="shadowOffsetOuter1" result="shadowBlurOuter1"/><feColorMatrix values="0 0 0 0 0 0 0 0 0 0 0 0 0 0 0 0 0 0 0.1 0" in="shadowBlurOuter1"/></filter><path id="c" d="M0 0h319v504H0z"/></defs><g fill="none" fill-rule="evenodd"><g opacity=".2" transform="translate(255)"><circle fill="#FF9B21" cx="205" cy="261" r="205"/><circle fill="#2B44FF" cx="329.5" cy="684.5" r="36.5"/><path fill="#2B44FF" d="M171.5 0L215 43.5 171.5 87 128 43.5z"/><path fill="#FF9B21" d="M49.5 615L71 636.5 49.5 658 28 636.5z"/><path fill="#2026A2" d="M359.5 56L370 66.5 359.5 77 349 66.5z"/></g><g transform="rotate(-2 2704.85 -5912.758)"><use fill="#000" filter="url(#a)" xlink:href="#b"/><use fill="#F2F2F2" xlink:href="#b"/></g><path d="M272.345 99.556l.141 4.048c.266 7.6 6.642 13.547 14.242 13.281l95.366-3.33c7.6-.265 13.546-6.642 13.281-14.242l-.141-4.049 27.993-.977c13.412-.469 24.665 10.025 25.133 23.437l15.52 444.448c.47 13.412-10.024 24.665-23.436 25.133l-179.565 6.27c-13.412.469-24.665-10.024-25.133-23.437l-15.52-444.447c-.47-13.413 10.024-24.665 23.436-25.134l28.683-1.001z" fill="#1F28CF"/><g transform="rotate(-2 2695.35 -6457.013)"><mask id="d" fill="#fff"><use xlink:href="#c"/></mask><g mask="url(#d)"><path d="M228.697 99.2c1.175-12.11 5.624-23.834 15.389-32.022 28.135-23.593 57.792 18.717 51.39 38.7-6.4 19.984-40.952 51.71-52.242 44.775-4.502-2.765-9.753-12.849-12.654-25.47l-30.566 39.198-28.563-29.578L228.697 99.2z" fill="#B28B67"/><path d="M240.435 107.648c-10.575 3.124-20.77 3.166-25.664-1.902-9.296-9.625-3.048-28.885 10.775-42.234a50.72 50.72 0 0 1 1.475-1.37c-16.814-3.44-38.152 2-51.163-11.474-17.7-18.33 12.205-61.278 36.936-35.668 16.819 17.417 22.555 28.434 25.933 39.44 5.508-2.505 11.1-3.614 16.13-3.224 1.365-.057 3.035.266 4.935.929 1.194.373 2.335.85 3.41 1.435 5.935 2.874 13.317 8.21 20.525 15.172 1.346 1.3 2.635 2.608 3.863 3.913 6.802-6.528 17.613-6.321 24.174.472 6.573 6.807 6.389 17.647-.41 24.214-6.577 6.35-16.932 6.377-23.551.215-4.734-2.61-10.186-6.572-15.653-11.524-1.435 2.38-3.36 4.777-5.839 7.172-2.19 2.114-4.744 4.114-7.532 5.945.255-2.465-.338-4.86-1.843-6.418-4.21-4.36-10.724-3.935-14.528-.261-4.828 4.662-5.627 10.825-1.973 15.168z" fill="#191847"/><path d="M-39.897 392.19c37.026 21.065 69.978 35.198 98.857 42.398 28.878 7.2 57.841 5.31 86.888-5.672-36.1-21.148-66.752-34.863-91.957-41.148-25.204-6.284-56.467-4.81-93.788 4.422z" fill="#1F28CF"/><path d="M89.413 459.239a9.683 9.683 0 0 1-.495-2.127c-1.81-15.407-49.156-188.56-50.721-218.448l95.945 23.922c1.19 22.725-2.794 162.479-5.297 189.936 2.503 44.92-4.61 186.601-3.552 196.803 1.113 10.733-21.514 15.982-23.845 2.548-3.71-21.376-10.704-79.707-11.622-114.488-.86-32.607-.912-61.762-.413-78.146z" fill="#997659"/><path d="M6.292 458.213c-41.418.14-188.371-17.576-198.848-17.22-10.777.366-14.424-22.585-.868-23.98 21.57-2.22 80.21-5.153 114.948-3.655 27.94 1.204 53.306 2.827 70.242 4.296 10.036-46.134 31.127-157.596 41.179-180.3l84.894 21.167c-9.64 21.77-84.56 179.479-94.935 194.548-3.456 5.442-10.009 6.594-16.612 5.144z" fill="#B28B67"/><path d="M-189.464 412.408c-5.636-2.678-9.828-4.113-12.576-4.305-3.058-.214-7.557-.015-13.495.596l-6.708 95.927c8.043 3.067 12.58 1.938 13.61-3.387 1.031-5.325 1.935-9.745 2.711-13.26l23.278-43.842a1 1 0 0 0-.438-1.364l-7.378-3.673c-1.966-5.133-2.84-9.254-2.623-12.363.194-2.77 1.693-6.615 4.498-11.531a2 2 0 0 0-.879-2.798zM96.695 647.234c-3.616 5.085-5.757 8.964-6.424 11.638-.741 2.974-1.327 7.439-1.756 13.393l93.304 23.263c4.418-7.388 4.094-12.052-.97-13.992-5.066-1.94-9.262-3.597-12.59-4.972l-39.133-30.537a1 1 0 0 0-1.419.194l-4.898 6.63c-5.397 1.043-9.608 1.189-12.631.435-2.695-.672-6.22-2.816-10.575-6.432a2 2 0 0 0-2.908.38z" fill="#E4E4E4"/><path d="M33.22 237.423c40.08-1.384 75.476 7.441 106.188 26.476-1.607 55.927 21.366 84.011 6.057 166.554-63.407 13.986-121.111-51.446-186.004-38.57-7.052-42.4 39.153-128.759 73.758-154.46z" fill="#2B44FF"/><g><path d="M213.04 319.69l12.662 66.417c8.111 13.002 13.778 25.054 17 36.157.261 3.158-.61 8.246-7.218 1.069-6.61-7.178-13.883-14.431-17.123-12.927-3.24 1.504-1.632 8.41-6.663 9.824-3.355.943-4.515-10.34-3.483-33.847l-24.292-53.176 29.116-13.516zM33.003 201.746l29.207 20.623c-58.84 45.543-90.227 69.59-94.163 72.143-8.854 5.742-10.536 22.752-12.194 31.365-12.544-2.428-.467-17.508-16.441-20.358-14.58-2.601-29.43.787-36.668-15.94-.89-2.056-.067-6.876 6.053-6.808 15.249.17 38.749-1.763 43.6-4.418 6.616-3.621 33.485-29.157 80.606-76.607z" fill="#B28B67"/><path d="M202.034 137.492l13.57 6.413c-15.523 66.579-12.159 139.306 10.094 218.183l-72.61 20.08c-9.641-96.874 2.002-181.704 48.946-244.676z" fill="#191847"/><path d="M42.878 252.35l107.916 75.564c17.439-78.118 40.99-138.36 70.655-180.725l-29.167-27.63c-54.31 23.111-96.902 68.562-149.404 132.79z" fill="#DDE3E9"/><path d="M191.577 119.1l.029-.014 2.125 1.487c2.481 1.868 6.244 4.737 11.288 8.608l-7.828 27.92c-18.302 27.91-52.004 86.382-101.104 175.418l-70.742-49.534a521.637 521.637 0 0 0-11.21 17.962l-52.6-36.831c69.84-82.995 146.517-131.348 230.032-145.058l.01.042z" fill="#2F3676"/><path d="M81.262 213.072c-22.952 37.064-35.12 65.172-36.508 84.324l-19.776-13.848c17.095-26.258 35.857-49.75 56.284-70.476z" fill-opacity=".1" fill="#000"/><path fill-opacity=".2" fill="#FFF" d="M71.037 251.242l46.204 8.257-11.321 16.168z"/></g></g></g><g><path d="M577.225 322.139c6.562-2.728 12.35-7.218 15.257-14.072 8.378-19.75-20.303-29.08-30.37-22.086-10.066 6.993-21.891 31.717-16.095 36.837 2.312 2.042 8.837 3.25 16.38 2.712l-16.677 23.777 21.384 10.895 10.121-38.063z" fill="#B28B67"/><path d="M559.437 267.812c1.236-1.33 3.106-2.057 4.913-1.634.438.102.86.268 1.252.489.14.079.16.14.278.074.088-.049.182-.23.247-.307.202-.24.419-.468.65-.68.792-.722 1.759-1.225 2.779-1.544 1.907-.597 4.065-.58 5.93.174 1.021.413 1.911 1.067 2.674 1.856.394.408.754.85 1.09 1.307.102.137.373.697.52.744.164.053.658-.167.828-.199 2.109-.39 4.214.106 6.095 1.082 2.123 1.102 4.121 2.254 5.237 4.46.236.466.44.95.62 1.44a10.55 10.55 0 0 1 .376 1.269c.06.275.002.326.294.304 1.12-.084 2.236.178 3.172.81a7.146 7.146 0 0 1 1.47 1.36c.146.175.415.713.613.817.195.104.771.026 1.012.054a7.6 7.6 0 0 1 3.595 1.432c1.09.799 2.018 1.869 2.691 3.038.324.562.569 1.127.67 1.77.043.277.067.558.137.83.041.16.177.371.158.537.011-.099 1.605.066 1.747.097.76.167 1.423.55 1.969 1.1 1.026 1.034 1.623 2.484 2.019 3.861.203.707.325 1.437.37 2.17.022.352.026.704.014 1.056-.005.17-.05.365-.028.532.028.215.1.256.264.427.829.868 1.444 1.935 1.732 3.1a6.803 6.803 0 0 1-.11 3.58c-.02.069-.145.331-.125.384.026.072.24.155.312.203.25.166.49.347.719.542.422.358.804.763 1.135 1.207 1.289 1.73 1.706 3.957 1.393 6.063-.329 2.21-1.442 4.367-3.142 5.834a6.472 6.472 0 0 1-.879.64c-.19.116-.224.1-.247.31-.024.236.017.498.01.736a9.352 9.352 0 0 1-.377 2.294c-.355 1.224-.847 2.45-1.63 3.467a5.528 5.528 0 0 1-1.289 1.228 4.819 4.819 0 0 1-1.248.598c-.087.027-.188.038-.269.076-.198.093-.158-.047-.212.21-.074.36-.037.77-.074 1.139-.038.379-.09.756-.153 1.132-.127.761-.293 1.518-.53 2.252-.454 1.41-1.199 2.781-2.425 3.664a4.367 4.367 0 0 1-1.768.749c-.312.056-.63.08-.947.07-.163-.004-.344-.063-.468.034-.134.103-.177.423-.232.586-.486 1.423-1.1 2.864-2.157 3.962a6.23 6.23 0 0 1-3.705 1.832c-2.705.332-5.38-1.127-6.942-3.292a8.062 8.062 0 0 1-.992-1.828c-1.976.98-4.362-.298-5.846-1.62-1.848-1.648-2.805-4.004-2.798-6.456-2.185.955-4.745-1.02-4.772-3.278a4.784 4.784 0 0 1 .283-1.623c.095-.274.249-.52.351-.787.131-.34.076-.765.11-1.14.07-.732.24-1.437.567-2.097.172-.345.385-.656.591-.98.185-.29.246-.62.351-.946.502.37 1.244.561 1.84.665.585.102 1.268-.066 1.816-.259 1.273-.447 2.36-1.33 3.285-2.287 2.03-2.104 3.24-5.25 1.431-7.894-.842-1.231-4.34-3.01-5.89-3.404-1.63-.414-4.93 1.967-5.166 2.228-.146.162-.239.407-.475.445-.518.081-.9-.714-1.06-1.092-.274-.651-.343-1.367-.362-2.067-.04-1.524.089-3.07.385-4.566.229-1.152.576-2.284.704-3.456.127-1.165-.012-2.336-.638-3.352-.681-1.106-1.652-2-2.544-2.93-.884-.924-1.707-1.92-2.135-3.14a4.598 4.598 0 0 1-.22-.826c-.033-.222.01-.592-.114-.786-.195-.3-.81-.089-1.125-.059-1.557.148-3.07.69-4.442 1.425-1.364.731-2.565 1.492-3.734 2.488-.867.74-1.722 1.817-2.798 2.236-.481.188-2.86-.763-3.443-1.437-.583-.675-1.012-1.873-1.01-2.486 0-.628.22-1.207.606-1.698.227-.29.51-.523.742-.803.195-.234.377-.457.63-.635a2.1 2.1 0 0 1 1.64-.335 6.147 6.147 0 0 1-.39-2.35c.03-.83.182-1.783.482-2.558.244-.63.655-1.203 1.245-1.55.619-.365 1.407-.407 2.106-.475a10.807 10.807 0 0 1-.917-3.294c-.262-2.211.116-4.637 1.678-6.319z" fill="#191847"/><path fill="#997659" d="M548 434l-49.082 124.227L466 663.25H453L503.326 434z"/><path d="M557.883 434c.523 43.654 8.145 102.427 9.363 105.149.812 1.814 28.838 24.883 84.078 69.209l-8.953 9.58c-65.179-38.003-99.276-59.539-102.292-64.607C535.555 545.728 520.826 475.763 509 434h48.883z" fill="#B28B67"/><path d="M652.522 605.16c3.007 1.062 5.078 2.07 6.214 3.023 1.381 1.16 3.204 3.08 5.468 5.765l-36.255 43.206c-4.654-1.992-6.114-4.321-4.38-6.989a312.366 312.366 0 0 0 4.257-6.701l7.898-27.594a1 1 0 0 1 1.264-.678l4.214 1.337c2.924-1.363 4.974-2.745 6.148-4.145.955-1.137 1.814-3.094 2.577-5.869a2 2 0 0 1 2.595-1.355zM471.322 658.402c1.119 2.986 1.678 5.221 1.678 6.704 0 1.803-.3 4.434-.901 7.894h-56.402c-1.466-4.845-.62-7.461 2.538-7.848 3.158-.386 5.781-.735 7.87-1.046l26.215-11.687a1 1 0 0 1 1.332.532l1.685 4.088c2.923 1.364 5.299 2.046 7.126 2.046 1.485 0 3.536-.6 6.153-1.8a2 2 0 0 1 2.706 1.117z" fill="#E4E4E4"/><path fill="#69A1AC" d="M515 652.433l-61.804-6.708L499 434h55.356z"/><path d="M638.54 592.9L598 640.886c-42.7-46.636-67.594-77.066-74.683-91.29-7.088-14.224-13.46-52.756-19.116-115.596h62.32c3.09 55.284 5.173 84.212 6.248 86.785 1.076 2.572 23 26.611 65.771 72.115z" fill="#89C5CC"/><g><path d="M477.634 394.347l-31.309-24.206c-4.629-7.673-9.413-13.82-14.353-18.443-1.579-.973-4.468-1.869-2.48 3.477 1.988 5.345 3.838 11.058 2.19 12.346-1.648 1.29-4.826-1.38-6.905.867-1.385 1.497 4.197 5.093 16.747 10.788l21.297 26.754 14.813-11.583zm141.08 39.692l-20.867-1.012c10.705 42.25 16.504 64.673 17.397 67.271 2.01 5.845-3.334 14.305-5.67 18.88 6.65 3.403 6.514-7.915 14.894-3.47 7.649 4.058 13.266 10.978 22.616 5.865 1.15-.628 2.505-3.15-.337-5.326-7.082-5.421-17.206-14.79-18.484-17.765-1.743-4.059-4.926-25.54-9.55-64.443z" fill="#B28B67"/><path d="M563.338 341.217l-8.032-3.53c-22.695 13.17-40.771 53.9-54.356 56.501-12.843 2.46-27.88-6.768-45.546-18.57l-9.252 11.794c12.874 23.468 46.413 48.945 63.93 43.542 28.005-8.639 46.72-59.766 53.256-89.737z" fill="#DB2721"/><path d="M573.624 455.777l-74.24-18.51c-3.391-.846-1.53-5.585-.424-7.935 12.772-27.116 42.532-52.358 52.657-92.966l22.25 1.981c10.61 32.903 7.991 69.503-.243 117.43z" fill="#DDE3E9"/><path d="M588.23 428.74c8.327 31.072 16.148 53.898 23.462 68.477l16.32.832c5.476-64.664-12.111-117.783-52.763-159.357l-.244-.061-8.235-2.053c-35.562 60.738-51.748 103.08-48.558 127.026l66.826 16.661c2.92-16.211 3.735-33.923 3.191-51.525z" fill="#FF4133"/></g></g></g></svg>