<svg width="869" height="721" xmlns="http://www.w3.org/2000/svg"><g fill="none" fill-rule="evenodd"><g transform="translate(621.124 27.73)"><circle fill="#F2F2F2" cx="53" cy="53" r="53"/><circle fill-opacity=".1" fill="#000" cx="53" cy="11" r="3"/><circle fill-opacity=".1" fill="#000" cx="11" cy="53" r="3"/><circle fill-opacity=".1" fill="#000" cx="95" cy="53" r="3"/><circle fill-opacity=".1" fill="#000" cx="53" cy="95" r="3"/><path fill="#AFB9C5" d="M53 17l2 35h-4zM70.698 70.698L52.314 55.142l2.828-2.828z"/><circle fill="#C5CFD6" cx="53" cy="53" r="4"/></g><g opacity=".346"><path d="M648.865 404.966c-8.952-89.74-489.24-262.945-578.403-177.946-89.163 85-3.444 244.52 183.41 285.37 186.854 40.849 403.944-17.685 394.993-107.424z" fill="#F2F2F2"/><path d="M279.226 463.274c8.184-76.236 447.288-223.382 528.806-151.172 81.518 72.21 60.884 224.096-109.947 258.799-170.832 34.703-427.043-31.39-418.859-107.627z" fill="#DDE3E9"/></g><g transform="translate(40.504 107.262)"><ellipse fill="#F2F2F2" cx="49.5" cy="34.5" rx="42.5" ry="22.5"/><path d="M99 50C99 22.386 76.838 0 49.5 0S0 22.386 0 50" fill="#DDE3E9"/></g><path fill="#DDE3E9" d="M87.504-80h5v194.588h-5z"/><g opacity=".7"><g transform="translate(146.632 59.188)"><ellipse fill="#F2F2F2" cx="37" cy="27.842" rx="31.768" ry="18.158"/><path d="M74 40.35C74 18.067 57.435 0 37 0S0 18.066 0 40.35" fill="#DDE3E9"/></g><path fill="#DDE3E9" d="M181.632-80h5V82.188h-5z"/></g><g transform="translate(633.049 154.354)"><path d="M60 40.889l29.482-24.61a8 8 0 0 1 10.253 0l74.52 62.204a16 16 0 0 1 5.748 12.283v390.88" stroke="#CBCBCB" stroke-width="8"/><rect fill="#AFB9C5" x="150.003" y="480.646" width="59" height="7" rx="3"/><g transform="rotate(45 23.188 59.395)"><path d="M33.03 1.384c18.226 0 33 14.775 33 33v28h-66v-28c0-18.225 14.775-33 33-33z" fill="#C5CFD6"/><ellipse fill="#F2F2F2" cx="33.209" cy="61.445" rx="33" ry="6.5"/></g></g><path d="M80.739 404.173c2.865-.35 5.922-.226 8.586.904 5.665 2.405 7.275 9.097 7.197 14.537-.084 5.854-1.327 12.249 3.124 16.966 2.046 2.168 4.591 3.828 6.6 6.037 2.147 2.36 3.832 5.06 5.079 7.96 2.29 5.326 3.414 11.59 1.32 17.177-1.844 4.92-6.483 9.36-5.48 14.954 1.045 5.835 6.928 10.296 10.607 14.643 4.162 4.918 7.995 11.205 8.625 17.655.603 6.182-2.088 12.434-6.217 17.107-8.251 9.338-20.654 13.915-33.16 13.887-5.309-.012-11.32-.252-15.902-3.105-1.416-.882-2.164-1.872-3.005-3.247-.755-1.234-1.752-2.036-2.906-2.909-2.536-1.917-4.367-4.5-5.536-7.392-4.538-11.233-.91-25.13 5.441-35.104 1.505-2.363 2.738-4.638 2.007-7.454-.764-2.94-2.639-5.593-4.298-8.12-1.639-2.499-3.51-4.882-4.791-7.582-1.342-2.83-1.72-5.793-1.483-8.89.446-5.816 2.957-11.184 6.512-15.861 3.424-4.506 7.444-8.818 7.453-14.721.01-6.258-4.173-11.824-2.391-18.186.738-2.634 2.22-5.337 4.609-6.916 2.29-1.515 5.315-2.01 8.009-2.34z" fill="#DDE3E9"/><path d="M78.867 414.176c.054-.84 1.05-1.344 1.836-1.125 1.033.29 1.013 1.254.985 2.114-.083 2.643.3 5.212.935 7.777 1.32 5.332 3.76 10.244 5.694 15.366 1.932 5.117 2.839 10.401 1.706 15.816-1.069 5.106-2.747 10.08-3.84 15.191-.964 4.506-1.99 9.258-.522 13.752 1.412 4.326 4.534 7.849 6.783 11.758 4.654 8.093 6.718 17.071 6.995 26.31.128 4.29.012 8.62-.983 12.828-.573 2.423-1.343 5.697-3.419 7.37-.957.772-2.595 1.038-3.4-.104-.757-1.071-.094-2.73.147-3.872 1.04-4.944 1.249-9.996 1-15.015-.241-4.862-.815-9.716-2.346-14.36-1.42-4.31-3.578-8.18-6.117-11.95-2.588-3.841-5.278-7.69-6.347-12.243-1.086-4.623-.204-9.327.976-13.862 1.248-4.796 2.883-9.455 4.573-14.122 1.647-4.547 2.23-8.85 1.321-13.609-1.796-9.402-6.603-18.228-5.977-28.02z" fill="#C5CFD6"/><path d="M156.373 415.582c3.545 1.077 7.066 2.813 9.593 5.536 5.373 5.791 3.724 14.543.758 20.935-3.192 6.88-8.03 13.796-5.303 21.69 1.253 3.63 3.361 6.916 4.55 10.573 1.27 3.908 1.82 7.978 1.75 12.056-.13 7.49-2.122 15.483-7.532 21.001-4.763 4.859-12.55 7.697-14.331 14.833-1.858 7.445 2.684 15.782 4.7 22.835 2.283 7.983 3.456 17.412.785 25.368-2.56 7.625-9.02 13.619-16.334 16.997-14.613 6.75-31.58 5.711-46.232-.828-6.221-2.777-13.145-6.187-17.011-11.945-1.195-1.78-1.549-3.339-1.809-5.403-.233-1.852-.979-3.32-1.871-4.952-1.96-3.586-2.743-7.594-2.585-11.622.615-15.645 12.214-30.192 24.936-38.684 3.015-2.012 5.662-4.06 6.293-7.772.66-3.875-.138-7.987-.748-11.839-.602-3.807-1.537-7.598-1.612-11.459-.078-4.044 1.045-7.745 2.96-11.283 3.596-6.647 9.379-11.69 16.02-15.372 6.398-3.547 13.393-6.555 16.524-13.532 3.319-7.395 1.354-16.154 6.807-22.75 2.258-2.732 5.425-5.158 9.062-5.783 3.487-.6 7.297.388 10.63 1.4z" fill="#DDE3E9"/><path d="M149.132 427.81c.503-.966 1.933-1.04 2.736-.37 1.056.884.528 2.016.045 3.02-1.482 3.087-2.38 6.33-2.98 9.7-1.248 7.006-.967 14.102-1.389 21.181-.421 7.073-2.128 13.806-6.29 19.624-3.923 5.487-8.49 10.497-12.446 15.978-3.486 4.83-7.174 9.92-7.811 16.011-.615 5.863 1.19 11.672 1.772 17.48 1.204 12.023-1.084 23.737-5.6 34.823-2.097 5.148-4.5 10.215-7.867 14.676-1.939 2.57-4.554 6.044-7.857 6.936-1.524.412-3.578-.13-3.922-1.905-.324-1.666 1.32-3.282 2.2-4.509 3.805-5.309 6.696-11.182 9.033-17.257 2.265-5.884 4.135-11.933 4.778-18.235.596-5.847.1-11.562-.895-17.357-1.014-5.905-2.143-11.875-1.01-17.825 1.152-6.045 4.647-11.153 8.402-15.905 3.972-5.026 8.323-9.686 12.743-14.327 4.307-4.522 7.243-9.31 8.673-15.423 2.824-12.077 1.825-25.048 7.685-36.315z" fill="#C5CFD6"/><g><path d="M46.787 460c5.894 0 11.076 3.124 14.647 7.558 4.18 5.19 5.024 11.528 6.722 17.714.844 3.078 2.297 6.134 4.842 8.226 2.316 1.902 5.255 2.282 8.027 3.212 5.538 1.857 10.01 6.33 11.777 11.79 2.155 6.658-.128 13.373.265 20.122.361 6.197 6.472 10.063 11.388 13.034 4.848 2.93 9.215 5.672 10.675 11.379 1.548 6.053 2.067 12.809-.077 18.788-3.57 9.956-14.02 14.34-24.116 15.02-9.163.616-20.684-.352-27.565-7.003-4.118-3.98-5.61-9.547-5.424-15.085.115-3.444.797-6.856 1.68-10.184.624-2.358 1.469-4.707 1.71-7.144.639-6.485-5.354-7.73-10.456-9.51-6.483-2.263-11.021-6.537-14.177-12.492-2.939-5.544-4.172-11.767-2.41-17.87.9-3.118 2.532-5.945 4.745-8.35.974-1.059 2.348-1.942 3.227-3.054.821-1.039.642-2.385.36-3.601-1.309-5.62-5.384-10.272-6.841-15.882-1.316-5.063-.538-11.364 4.09-14.63 2-1.411 4.467-2.022 6.911-2.038z" fill="#C5CFD6"/><path d="M54.819 474.641c6.247 6.655 7.945 15.684 8.444 24.435.279 4.907-.012 10.083 1.43 14.843 1.233 4.074 4.125 7.188 7.106 10.132 6 5.924 12.693 11.948 14.448 20.523 1.03 5.032.335 10.23 1.758 15.206 1.294 4.524 3.572 8.968 6.343 12.788 2.23 3.077 5.137 5.432 7.576 8.3.744.875 1.81 2.163 1.503 3.399-.36 1.447-2.203 1.905-3.51 1.678-3.05-.53-5.617-3.442-7.61-5.559-2.916-3.095-5.394-6.424-7.407-10.159-2.236-4.147-4.036-8.548-4.805-13.201-.798-4.827-.4-9.858-2.223-14.49-3.067-7.796-10.505-12.396-15.883-18.472-6.7-7.57-5.7-16.992-5.015-26.305.377-5.118.752-10.897-1.834-15.57-.987-1.783-3.188-3.446-3.612-5.474-.389-1.857 1.733-3.734 3.29-2.074z" fill="#AFB9C5"/></g><path d="M61.481 584c0 38.058 6.211 58 39 58s39-19.942 39-58h-78z" fill="#89C5CC"/><g><g transform="translate(199.101 385)"><rect fill="#AFB9C5" x="21" y="144" width="38" height="9" rx="2"/><path d="M31 115c4.293-13.915 6.699-28.581 7.217-44h4.566c.518 15.419 2.924 30.085 7.217 44h6.5c8.56 0 15.5 6.94 15.5 15.5 0 8.56-6.94 15.5-15.5 15.5h-33C14.94 146 8 139.06 8 130.5c0-8.56 6.94-15.5 15.5-15.5H31z" fill="#DDE3E9"/><path d="M4.622 1.679A353.495 353.495 0 0 1 39 0c11.46 0 22.919.56 34.378 1.679L78 81.133C65 82.378 52 83 39 83s-26-.622-39-1.867L4.622 1.68z" fill="#C5CFD6"/></g><path d="M197.101 538h104v104h-21v-82h-83v82h-21V538h21z" fill="#F2F2F2"/></g><g><path d="M676.685 360.208c8.833 20.99 23.848 35.573 31.8 57.397 4.717 12.942 6.683 27.015 6.802 41.427.065 7.828-.072 15.662-.108 23.49-.036 7.634-.243 15.22-.891 22.805-.652 7.625-1.38 15.16-1.702 22.832-.25 5.978-.365 12.932-2.391 18.385-1.612 4.337-5.707 4.972-6.794-.288-.604-2.923-.528-6.188-.461-9.193.085-3.855.31-7.704.424-11.559.46-15.468-.137-30.938.175-46.412.304-15.119 2.247-30.22.097-45.239-1.775-12.401-6.286-23.05-11.47-33.26-4.988-9.822-10.416-19.406-13.787-30.579-.968-3.208-1.716-6.533-2.075-9.984.157-.073.284-.014.381.178z" fill="#C1DEE2"/><path d="M674.278 401.617c1.749 1.263 2.726 3.11 3.908 4.934 1.47 2.266 3.199 4.312 4.669 6.58 3.064 4.729 5.757 9.748 8.55 14.668 5.305 9.338 9.332 19.292 11.326 30.096 2.068 11.197 2.625 22.753 3.492 34.117.92 12.044 1.846 24.176 1.968 36.267.055 5.417.348 11.167-.303 16.546-.405 3.348-1.916 6.202-5.323 6.175-7.236-.058-10.633-8.073-12.053-14.646-2.09-9.68-2.506-19.961-2.175-29.86.4-11.936 2.471-23.692 3.367-35.582.95-12.587.414-24.952-3.914-36.803-2.186-5.99-4.723-11.835-7.002-17.784-.97-2.533-1.765-5.135-3.075-7.494-1.458-2.623-3.267-5.005-4.409-7.831l.974.617z" fill="#89C5CC"/><path d="M757.638 376.518l.666-.518c-.639 2.693-1.793 4.88-2.676 7.341-.793 2.213-1.195 4.717-1.73 7.136-1.254 5.68-2.704 11.234-3.888 16.963-2.346 11.337-1.902 23.55-.364 36.128 1.453 11.882 3.75 23.745 4.845 35.624.908 9.851 1.298 20.01.432 29.409-.588 6.383-2.516 14.005-7.77 13.36-2.474-.302-3.765-3.28-4.285-6.64-.835-5.4-1.01-11.075-1.335-16.443-.727-11.982-.871-23.927-1.015-35.786-.136-11.188-.51-22.598.238-33.505.721-10.524 2.977-20.007 6.201-28.757 1.699-4.61 3.317-9.328 5.225-13.722.915-2.107 2.033-3.97 2.949-6.075.736-1.694 1.321-3.432 2.507-4.515zM676.513 436.302c.957-1.607 3.063 3.691 3.384 4.358a202.14 202.14 0 0 0-.41-.993c1.9 3.158 3.638 6.446 4.718 10.067 1.07 3.585 1.987 7.243 2.99 10.853 1.883 6.774 4.31 13.356 6.016 20.19 1.662 6.661 2.08 13.209 1.678 20.098-.418 7.16-.673 14.43-.186 21.587.233 3.418 1.344 6.602 2.105 9.892.762 3.294 1.362 6.632 2.263 9.885.207-.424.233.993.233 1.1a6.83 6.83 0 0 1-.38 2.265c-.672 1.982-1.93 3.665-3.842 4.212-3.456.987-6.666-2.157-7.78-5.477-1.6-4.764-2.48-10.028-3.243-15.035-.698-4.591-.864-9.21-.656-13.864.409-9.18 2.07-18.238 2.52-27.414.488-9.99-1.49-19.377-3.148-29.101-.798-4.686-1.561-9.327-3.115-13.791-.629-1.808-1.449-3.403-2.308-5.073-.49-.95-1.479-2.643-.84-3.76z" fill="#C1DEE2"/><path d="M704.556 420.697c-.396 11.445-1.08 22.803-2.606 34.127-1.557 11.556-3.346 23.073-4.844 34.64-1.459 11.258-2.987 22.704-2.784 34.12.15 8.41-1.244 22.635 8.095 26.785 9.46 4.203 11.488-13.746 12.11-19.67 1.19-11.366.804-22.852.226-34.28-.593-11.73-1.583-23.4-2.81-35.085-1.362-12.981-2.431-26.02-3.29-39.038-.424-6.439-.529-12.867-.412-19.308.111-6.077-.12-12.218-2.28-17.988l-.34.246" fill="#69A1AC"/><path d="M753.387 456.955c-1.701 2.478-3.416 4.932-5.022 7.557-2.875 4.697-5.474 9.92-6.256 16.635-1.636 14.053-.324 29.232-.007 43.716.065 2.96-.31 5.83.857 8.647 1.058 2.554 3.036 4.5 4.92 4.49 4.036-.023 3.42-9.905 3.427-14.254.012-7.623-.843-15.324-.77-22.94.074-7.546.533-15.112 1.627-22.278 1.108-7.253 2.73-14.219 4.87-20.718.297-.902 2.429-7.873.415-6.671" fill="#89C5CC"/><path d="M735.566 382c-2.653 0-2.637 13.226-2.716 14.925-.289 6.13-.22 12.263-.403 18.394-.4 13.382-.89 26.88-2.9 40.107-1.082 7.12-2.336 14.21-3.686 21.276-1.353 7.087-3.17 14.165-4.06 21.342-.855 6.899-.372 13.933-.255 20.866.117 6.975.328 13.964 1.242 20.878.225 1.706.49 3.407.773 5.103.235 1.414.098 3.167.497 4.51.639 2.151 3.379 2.855 5.224 2.52 4.993-.912 8.182-7.181 9.887-11.761 2.178-5.849 3.334-12.193 4.474-18.356 1.292-6.983 2.05-14.072 2.405-21.18.722-14.449-.205-28.912-1.24-43.314-.576-8.01-1.24-15.983-2.258-23.943-1.013-7.926-2.314-15.817-3.16-23.766-.615-5.776-1.221-11.56-1.62-17.36-.095-1.382-.175-10.241-2.204-10.241" fill="#69A1AC"/><path d="M732.245 478.139c-.433-13.886-6.014-74.88-7.284-91.672-.318-4.203-3.375-21.702-3.772-26.467-1.075 1.347-.983 22.31-.972 27.126.013 4.765-.578 9.45-.882 14.19-.31 4.835-7.459 67.285-8.386 71.931-1.846 9.244-3.081 18.73-4.034 28.18-.928 9.212-2.37 18.931-1.129 28.191.286 2.132.737 4.23 1.473 6.188.794 2.116 1.339 4.073 1.977 6.287 1.026 3.566 2.883 6.696 5.736 8.169 5.85 3.019 8.99-3.815 10.583-9.765 2.542-9.502 4.175-19.16 4.94-29.138.846-11.04 2.096-22.104 1.75-33.22" fill="#89C5CC"/><g transform="translate(660.304 519)"><rect fill="#FFF" x="10" width="91" height="91" rx="2"/><rect fill="#C5CFD6" y="10" width="10" height="113" rx="2"/><rect fill="#C5CFD6" x="50" y="10" width="10" height="113" rx="2"/><rect fill="#C5CFD6" x="101" y="10" width="10" height="113" rx="2"/></g></g><g><path d="M239.172 357.676c-5.184-6.084-8.693-13.542-8.106-21.897 1.689-24.076 35.203-18.78 41.722-6.628 6.52 12.15 5.744 42.974-2.681 45.145-3.36.866-10.518-1.255-17.803-5.646l4.573 32.35h-27l9.295-43.324z" fill="#B28B67"/><path d="M247.573 344.6a5.413 5.413 0 0 0-3.071-.975c-3.107 0-5.625 2.77-5.625 5.625 0 2.97 1.402 5.266 3.405 6.24-1.07 2.092-2.145 3.61-3.405 3.885-4.862-.492-11.25-12.577-11.25-22.5 0-10.861 8.642-20.25 24.75-20.25 14.477 0 19.967 5.97 20.25 11.25-6.204 1.705-17.045 2.362-32.625 2.25v1.125l13.5 1.125 2.25 6.75c-3.58-.267-6.138 2.188-8.18 5.475z" fill="#191847"/><g transform="translate(86 495.335)"><path d="M286.32 20.367c8.065-10.96 28.225-3.704 28.213 5.369-.032 23.822-21.729 136.916-22.861 144.056-1.133 7.14-13.269 9.476-13.976.554-1.124-14.196-3.213-63.407-1.123-86.301.61-6.688 1.254-13.152 1.903-19.207-11.403 20.525-28.743 49.536-52.02 87.033l-12.937-5.922c10.16-33.536 18.49-57.212 24.991-71.027 11.132-23.655 21.57-43.912 25.963-51.047 5.803-9.426 15.215-8.175 21.846-3.508z" fill="#B28B67"/><path d="M214.444 127.325l44.403-105.392c10.637-17.144 40.46 3.49 36.833 13.433-8.235 22.575-50.12 95.66-52.573 102.387l-28.663-10.428z" fill="#1F28CF"/><path d="M315.657 33.964c0 29.873-13.069 100.093-13.078 106.67l-31.658-1.07c5.534-61.05 7.868-91.783 7.001-92.197-1.95-.93-79.92 10.813-103.306 11.7-33.721 1.278-47.67-19.45-48.803-58.785h65.32c55.853 6.68 92.563 11.326 110.128 13.938 11.28 1.678 14.396 11.515 14.396 19.744z" fill="#2B44FF"/><path d="M211.953 142.415c-2.14 3.069-3.416 5.434-3.83 7.095-.491 1.968-.877 4.923-1.16 8.864l61.904 15.434c2.928-4.888 2.71-7.975-.65-9.26a355.162 355.162 0 0 1-8.353-3.297l-25.7-20.015a1 1 0 0 0-1.418.193l-3.041 4.109c-3.58.689-6.373.783-8.379.283-1.675-.418-3.835-1.691-6.478-3.82a2 2 0 0 0-2.895.414zM276.101 153.241c-1.333 3.495-2 6.099-2 7.81 0 2.03.34 4.99 1.02 8.882h63.798c1.658-5.451.701-8.394-2.87-8.829-3.573-.434-6.54-.827-8.903-1.177l-29.779-13.204a1 1 0 0 0-1.329.532l-1.957 4.722c-3.307 1.534-5.994 2.301-8.061 2.301-1.727 0-4.13-.713-7.21-2.139a2 2 0 0 0-2.709 1.102z" fill="#E4E4E4"/><rect fill="#2F3676" x="275.217" y="169.954" width="59.537" height="7.879" rx="3.939"/><path d="M121.21 6.753h122.663c5.523 0 10 4.477 10 10V73.16H115.21a4 4 0 0 1-4-4V16.753c0-5.523 4.477-10 10-10z" fill="#2F3676"/><path d="M242.64 6.753h3.509a10 10 0 0 1 9.868 8.383l24.816 151.441H268.83" fill="#2F3676"/><ellipse fill="#191847" cx="275.217" cy="168.828" rx="20.22" ry="20.259"/><g fill="#191847"><path d="M125.813 186.837c-47.15 0-85.373-38.298-85.373-85.54 0-47.242 38.223-85.54 85.373-85.54 47.15 0 85.374 38.298 85.374 85.54 0 47.242-38.223 85.54-85.374 85.54zm0-15.758c38.465 0 69.647-31.242 69.647-69.782 0-38.54-31.182-69.782-69.647-69.782-38.464 0-69.646 31.242-69.646 69.782 0 38.54 31.182 69.782 69.646 69.782z"/><path d="M121.32 27.012h8.987v148.57h-8.987z"/><path d="M176.477 47.005l3.528 3.536a2 2 0 0 1 0 2.825L77.981 155.59a2 2 0 0 1-2.83 0l-3.53-3.535a2 2 0 0 1 0-2.826L173.645 47.005a2 2 0 0 1 2.832 0z"/><path d="M199.953 98.795v5.004a2 2 0 0 1-2 2H53.673a2 2 0 0 1-2-2v-5.004a2 2 0 0 1 2-2h144.28a2 2 0 0 1 2 2z"/><path d="M180.005 152.054l-3.528 3.535a2 2 0 0 1-2.832 0L71.621 53.366a2 2 0 0 1 0-2.825l3.53-3.536a2 2 0 0 1 2.83 0l102.024 102.223a2 2 0 0 1 0 2.826z"/></g></g><path d="M324.467 449.522l44.418-6.048c8.885-4.934 17.06-8.274 24.522-10.02 2.1-.061 5.442.7.464 4.843-4.977 4.141-10.026 8.723-9.14 10.933.887 2.21 5.516 1.388 6.282 4.788.512 2.267-7 2.635-22.535 1.105l-36.042 14.264-7.97-19.865zm-139.534 10.263l24.634.092c-27.012 60.68-41.097 92.45-42.254 95.313-2.603 6.44 2.906 16.247 5.261 21.518-7.672 3.427-6.855-9.265-16.533-4.77-8.835 4.103-15.555 11.536-25.762 5.25-1.255-.773-2.63-3.683.693-5.957 8.277-5.666 20.206-15.582 21.817-18.846 2.198-4.45 12.913-35.318 32.144-92.6z" fill="#997659"/><path d="M252.41 381.793l19.288 1.283c4.75 42.9 30.625 69.997 88.556 60.823l7.697 55.245c-54.146 6.986-101.632-14.653-111.364-73.242-2.52-15.166-4.509-30.95-4.177-44.109z" fill="#AFB9C5"/><path d="M242.894 376.196l29.224 6.681c0 50.174 16.011 82.187 24.224 119.076h-78.926c-1.112 12.747-1.795 25.849-2.15 39.305h-59.097c13.391-71.126 41.657-126.153 84.796-165.08h1.913l.016.018z" fill="#C5CFD6"/><path d="M229.868 430.373c-2.034 31.265-.838 55.126 3.589 71.58h-16.041c2.202-25.251 6.089-49.112 12.452-71.58z" fill-opacity=".1" fill="#000"/><g><path d="M581.955 286.676c5.184-6.084 8.692-13.542 8.106-21.897-1.69-24.076-35.203-18.78-41.722-6.628-6.52 12.15-5.745 42.974 2.68 45.145 3.36.866 10.519-1.255 17.804-5.646L564.25 330h27l-9.295-43.324z" fill="#B28B67"/><path d="M567.473 267.438c-1.034 14.396-3.768 21.595-8.202 21.595-6.652 0-12.296-4.223-15.214-4.223-2.128 0-1.653 2.662-.243 4.637 1.164 1.628 6.83 3.198 6.83 5.723s-4.477.572-4.477 2.07c0 2.476-.786 7.134 3.513 7.134 4.35 0 16.826-1.586 18.964-8.044 1.38-4.167 2.272-12.803 2.676-25.908a6.75 6.75 0 0 1 5.521 11.531 102.342 102.342 0 0 0 5.319 6.885c7.535-4.521 13.126-17.755 5.76-30.469-2.037-6.228-6.647-9.554-12.09-11.099-4.41-1.845-8.989-2.053-12.854-.947-7.575.65-14.34 2.96-16.257 4.332 0 7.172 1.39 9.3 13.26 9.112 2.916 1.54 5.158 4.193 7.494 7.67z" fill="#191847"/></g><g><path fill="#997659" d="M609.213 425l-42.272 138.467-20.477 117.756h-16.056L552.046 425z"/><path d="M624.336 425c-2.871 76.026.508 115.24 1.15 122.148.643 6.907 9.442 51.694 30.274 136.394l-17.109-5.887c-32.922-77.682-44.14-118.055-47.917-128.256-3.776-10.2-13.805-51.667-30.086-124.399h63.688z" fill="#B28B67"/><path d="M655.509 677.287c1.333 3.495 2 6.099 2 7.811 0 2.029-.34 4.989-1.02 8.881h-63.798c-1.658-5.451-.701-8.394 2.87-8.829 3.573-.434 6.54-.827 8.903-1.177l29.779-13.204a1 1 0 0 1 1.329.532l1.957 4.722c3.307 1.534 5.994 2.301 8.061 2.301 1.727 0 4.13-.713 7.21-2.139a2 2 0 0 1 2.709 1.102zM549.915 677.287c1.334 3.495 2 6.099 2 7.811 0 2.029-.34 4.989-1.019 8.881h-63.799c-1.658-5.451-.7-8.394 2.871-8.829 3.572-.434 6.54-.827 8.902-1.177l29.78-13.204a1 1 0 0 1 1.329.532l1.957 4.722c3.307 1.534 5.994 2.301 8.061 2.301 1.727 0 4.13-.713 7.21-2.139a2 2 0 0 1 2.708 1.102z" fill="#E4E4E4"/><path fill="#69A1AC" d="M614.83 425l-17.973 70.547h-54.898L550.144 425z"/><path d="M624.94 425c5.914 17.761 7.037 41.277 3.37 70.547h-56.021L556.884 425h68.056z" fill="#89C5CC"/></g><g><path d="M508.739 416.473l-27.24 35.167c-8.633 5.2-15.55 10.575-20.75 16.124-1.096 1.773-2.105 5.018 3.91 2.784 6.014-2.234 12.44-4.313 13.89-2.463 1.45 1.85-1.554 5.42.972 7.754 1.684 1.556 5.732-4.714 12.142-18.81l30.102-23.925-13.026-16.631zm140.686-15.353l-23.268 3.363c20.885 44.302 32.1 67.79 33.643 70.462 3.475 6.015-.616 16.494-2.215 22.041 8.075 2.326 5.5-10.128 15.71-7.024 9.318 2.833 17.008 9.26 26.24 1.613 1.135-.94 2.092-4.013-1.514-5.803-8.986-4.458-22.178-12.617-24.228-15.625-2.796-4.102-10.919-27.11-24.368-69.027z" fill="#B28B67"/><path d="M569.56 312.904l-9.865-.296c-10.773 43.69-34.448 85.338-71.026 124.946l36.552 33.484c34.56-53.934 53.052-107.168 44.339-158.134z" fill="#191847"/><path d="M628.538 427.848l-85.782 12.056c13.095-51.03 17.273-93.401 12.534-127.117l25.336-7.485c24.924 29.79 36.317 69.18 47.912 122.546z" fill="#DDE3E9"/><path d="M581.176 305.243l-.013-.017-1.689.238c-2.011.353-5.072.911-9.182 1.673l-3.746 18.715c2.395 21.84 4.692 66.21 6.89 133.107l56.232-7.902a343.8 343.8 0 0 1 1.208 13.885l41.811-5.876c-16.153-69.555-46.65-120.836-91.493-153.844l-.018.021z" fill="#2F3676"/><path d="M617.769 393.337c2.387 28.599 1.13 48.722-3.774 60.37l15.72-2.21c-2.18-20.511-6.163-39.898-11.946-58.16z" fill-opacity=".1" fill="#000"/><path fill-opacity=".2" fill="#FFF" d="M612.369 418.78l-29.536-8.97 1.808 12.867z"/></g></g></g></svg>