<svg id="visual" viewBox="0 0 900 600" width="900" height="600" xmlns="http://www.w3.org/2000/svg" xmlns:xlink="http://www.w3.org/1999/xlink" version="1.1"><g><g transform="translate(418 161)"><path d="M89.5 -26.7C103.2 13.2 92.7 63.2 62.3 85.2C31.9 107.2 -18.6 101.1 -54.1 75.2C-89.7 49.2 -110.3 3.3 -98.8 -33.5C-87.3 -70.3 -43.6 -98 -2.9 -97.1C37.9 -96.1 75.7 -66.5 89.5 -26.7Z" fill="#dc3545"></path></g><g transform="translate(742 581)"><path d="M54.7 -18.9C62.6 6.7 55.2 36.2 34.1 53C13 69.8 -21.7 73.8 -41.7 58.9C-61.7 44 -66.9 10.3 -57.5 -17.4C-48.1 -45.1 -24 -66.7 -0.3 -66.6C23.3 -66.5 46.7 -44.6 54.7 -18.9Z" fill="#dc3545"></path></g><g transform="translate(883 307)"><path d="M86.2 -27.7C96.1 2.5 77.8 42.2 47.1 64.5C16.3 86.8 -27 91.7 -57.6 71.4C-88.2 51 -106.2 5.3 -94.5 -27.4C-82.8 -60.1 -41.4 -79.8 -1.6 -79.3C38.1 -78.7 76.2 -58 86.2 -27.7Z" fill="#dc3545"></path></g><g transform="translate(26 321)"><path d="M76.6 -27.4C86.1 4.4 71.6 41.5 43.6 62.5C15.5 83.5 -26.1 88.3 -52 69.9C-77.8 51.5 -88 9.8 -76.7 -24.4C-65.4 -58.6 -32.7 -85.4 0.4 -85.6C33.6 -85.7 67.1 -59.2 76.6 -27.4Z" fill="#dc3545"></path></g><g transform="translate(192 570)"><path d="M77.3 -24C89.1 11.3 80.1 54.5 53.5 73.9C27 93.2 -17.1 88.7 -50.1 65.5C-83 42.4 -104.9 0.6 -94.7 -32.5C-84.5 -65.5 -42.3 -89.8 -4.8 -88.3C32.7 -86.8 65.5 -59.3 77.3 -24Z" fill="#dc3545"></path></g><g transform="translate(850 7)"><path d="M91.4 -32.6C102 2.9 82.8 45.2 49.8 69.2C16.9 93.3 -29.7 99.2 -59.1 78.5C-88.6 57.8 -100.8 10.5 -88.1 -27.9C-75.4 -66.2 -37.7 -95.7 1.3 -96.2C40.4 -96.6 80.8 -68 91.4 -32.6Z" fill="#dc3545"></path></g></g></svg>