<svg id="visual" viewBox="0 0 900 600" width="900" height="600" xmlns="http://www.w3.org/2000/svg" xmlns:xlink="http://www.w3.org/1999/xlink" version="1.1"><rect x="0" y="0" width="900" height="600" fill="#FFFFFF"></rect><defs><linearGradient id="grad1_0" x1="33.3%" y1="0%" x2="100%" y2="100%"><stop offset="20%" stop-color="#dc3545" stop-opacity="1"></stop><stop offset="80%" stop-color="#dc3545" stop-opacity="1"></stop></linearGradient></defs><defs><linearGradient id="grad1_1" x1="33.3%" y1="0%" x2="100%" y2="100%"><stop offset="20%" stop-color="#dc3545" stop-opacity="1"></stop><stop offset="80%" stop-color="#ed706f" stop-opacity="1"></stop></linearGradient></defs><defs><linearGradient id="grad1_2" x1="33.3%" y1="0%" x2="100%" y2="100%"><stop offset="20%" stop-color="#f9a19d" stop-opacity="1"></stop><stop offset="80%" stop-color="#ed706f" stop-opacity="1"></stop></linearGradient></defs><defs><linearGradient id="grad1_3" x1="33.3%" y1="0%" x2="100%" y2="100%"><stop offset="20%" stop-color="#f9a19d" stop-opacity="1"></stop><stop offset="80%" stop-color="#ffd0cd" stop-opacity="1"></stop></linearGradient></defs><defs><linearGradient id="grad1_4" x1="33.3%" y1="0%" x2="100%" y2="100%"><stop offset="20%" stop-color="#ffffff" stop-opacity="1"></stop><stop offset="80%" stop-color="#ffd0cd" stop-opacity="1"></stop></linearGradient></defs><defs><linearGradient id="grad2_0" x1="0%" y1="0%" x2="66.7%" y2="100%"><stop offset="20%" stop-color="#dc3545" stop-opacity="1"></stop><stop offset="80%" stop-color="#dc3545" stop-opacity="1"></stop></linearGradient></defs><defs><linearGradient id="grad2_1" x1="0%" y1="0%" x2="66.7%" y2="100%"><stop offset="20%" stop-color="#ed706f" stop-opacity="1"></stop><stop offset="80%" stop-color="#dc3545" stop-opacity="1"></stop></linearGradient></defs><defs><linearGradient id="grad2_2" x1="0%" y1="0%" x2="66.7%" y2="100%"><stop offset="20%" stop-color="#ed706f" stop-opacity="1"></stop><stop offset="80%" stop-color="#f9a19d" stop-opacity="1"></stop></linearGradient></defs><defs><linearGradient id="grad2_3" x1="0%" y1="0%" x2="66.7%" y2="100%"><stop offset="20%" stop-color="#ffd0cd" stop-opacity="1"></stop><stop offset="80%" stop-color="#f9a19d" stop-opacity="1"></stop></linearGradient></defs><defs><linearGradient id="grad2_4" x1="0%" y1="0%" x2="66.7%" y2="100%"><stop offset="20%" stop-color="#ffd0cd" stop-opacity="1"></stop><stop offset="80%" stop-color="#ffffff" stop-opacity="1"></stop></linearGradient></defs><g transform="translate(900, 0)"><path d="M0 432.7C-59 426.6 -118.1 420.5 -163 393.6C-208 366.7 -238.9 319 -280 280C-321.2 241 -372.6 210.8 -399.7 165.6C-426.9 120.4 -429.8 60.2 -432.7 0L0 0Z" fill="#ffe8e6"></path><path d="M0 346.1C-47.2 341.3 -94.5 336.4 -130.4 314.9C-166.4 293.3 -191.1 255.2 -224 224C-256.9 192.8 -298.1 168.6 -319.8 132.5C-341.5 96.3 -343.8 48.1 -346.1 0L0 0Z" fill="#fdb9b5"></path><path d="M0 259.6C-35.4 255.9 -70.8 252.3 -97.8 236.1C-124.8 220 -143.3 191.4 -168 168C-192.7 144.6 -223.5 126.5 -239.8 99.3C-256.1 72.2 -257.9 36.1 -259.6 0L0 0Z" fill="#f38986"></path><path d="M0 173.1C-23.6 170.6 -47.2 168.2 -65.2 157.4C-83.2 146.7 -95.5 127.6 -112 112C-128.5 96.4 -149 84.3 -159.9 66.2C-170.8 48.1 -171.9 24.1 -173.1 0L0 0Z" fill="#e5555a"></path><path d="M0 86.5C-11.8 85.3 -23.6 84.1 -32.6 78.7C-41.6 73.3 -47.8 63.8 -56 56C-64.2 48.2 -74.5 42.2 -79.9 33.1C-85.4 24.1 -86 12 -86.5 0L0 0Z" fill="#dc3545"></path></g><g transform="translate(0, 600)"><path d="M0 -432.7C58.1 -428.2 116.3 -423.8 165.6 -399.7C214.9 -375.7 255.3 -332 288.5 -288.5C321.7 -245 347.7 -201.5 370.5 -153.5C393.3 -105.4 413 -52.7 432.7 0L0 0Z" fill="#ffe8e6"></path><path d="M0 -346.1C46.5 -342.6 93 -339 132.5 -319.8C171.9 -300.5 204.2 -265.6 230.8 -230.8C257.4 -196 278.1 -161.2 296.4 -122.8C314.6 -84.3 330.4 -42.2 346.1 0L0 0Z" fill="#fdb9b5"></path><path d="M0 -259.6C34.9 -256.9 69.8 -254.3 99.3 -239.8C128.9 -225.4 153.2 -199.2 173.1 -173.1C193 -147 208.6 -120.9 222.3 -92.1C236 -63.2 247.8 -31.6 259.6 0L0 0Z" fill="#f38986"></path><path d="M0 -173.1C23.3 -171.3 46.5 -169.5 66.2 -159.9C85.9 -150.3 102.1 -132.8 115.4 -115.4C128.7 -98 139.1 -80.6 148.2 -61.4C157.3 -42.2 165.2 -21.1 173.1 0L0 0Z" fill="#e5555a"></path><path d="M0 -86.5C11.6 -85.6 23.3 -84.8 33.1 -79.9C43 -75.1 51.1 -66.4 57.7 -57.7C64.3 -49 69.5 -40.3 74.1 -30.7C78.7 -21.1 82.6 -10.5 86.5 0L0 0Z" fill="#dc3545"></path></g></svg>