<svg id="visual" viewBox="0 0 900 600" width="900" height="600" xmlns="http://www.w3.org/2000/svg" xmlns:xlink="http://www.w3.org/1999/xlink" version="1.1"><path d="M0 383L21.5 392.5C43 402 86 421 128.8 416.5C171.7 412 214.3 384 257.2 375.7C300 367.3 343 378.7 385.8 389.3C428.7 400 471.3 410 514.2 418.7C557 427.3 600 434.7 642.8 432.5C685.7 430.3 728.3 418.7 771.2 419.5C814 420.3 857 433.7 878.5 440.3L900 447L900 601L878.5 601C857 601 814 601 771.2 601C728.3 601 685.7 601 642.8 601C600 601 557 601 514.2 601C471.3 601 428.7 601 385.8 601C343 601 300 601 257.2 601C214.3 601 171.7 601 128.8 601C86 601 43 601 21.5 601L0 601Z" fill="#f07a7f"></path><path d="M0 441L21.5 443C43 445 86 449 128.8 448.8C171.7 448.7 214.3 444.3 257.2 445C300 445.7 343 451.3 385.8 453.7C428.7 456 471.3 455 514.2 447C557 439 600 424 642.8 423.3C685.7 422.7 728.3 436.3 771.2 438.2C814 440 857 430 878.5 425L900 420L900 601L878.5 601C857 601 814 601 771.2 601C728.3 601 685.7 601 642.8 601C600 601 557 601 514.2 601C471.3 601 428.7 601 385.8 601C343 601 300 601 257.2 601C214.3 601 171.7 601 128.8 601C86 601 43 601 21.5 601L0 601Z" fill="#e75a62"></path><path d="M0 455L21.5 456C43 457 86 459 128.8 458.7C171.7 458.3 214.3 455.7 257.2 461.2C300 466.7 343 480.3 385.8 485.2C428.7 490 471.3 486 514.2 480.7C557 475.3 600 468.7 642.8 469.2C685.7 469.7 728.3 477.3 771.2 479.5C814 481.7 857 478.3 878.5 476.7L900 475L900 601L878.5 601C857 601 814 601 771.2 601C728.3 601 685.7 601 642.8 601C600 601 557 601 514.2 601C471.3 601 428.7 601 385.8 601C343 601 300 601 257.2 601C214.3 601 171.7 601 128.8 601C86 601 43 601 21.5 601L0 601Z" fill="#dc3545"></path><path d="M0 496L21.5 498.7C43 501.3 86 506.7 128.8 507.5C171.7 508.3 214.3 504.7 257.2 508.5C300 512.3 343 523.7 385.8 528.5C428.7 533.3 471.3 531.7 514.2 527.8C557 524 600 518 642.8 515.2C685.7 512.3 728.3 512.7 771.2 516.2C814 519.7 857 526.3 878.5 529.7L900 533L900 601L878.5 601C857 601 814 601 771.2 601C728.3 601 685.7 601 642.8 601C600 601 557 601 514.2 601C471.3 601 428.7 601 385.8 601C343 601 300 601 257.2 601C214.3 601 171.7 601 128.8 601C86 601 43 601 21.5 601L0 601Z" fill="#bf2d3d"></path><path d="M0 546L21.5 549.7C43 553.3 86 560.7 128.8 560C171.7 559.3 214.3 550.7 257.2 543.7C300 536.7 343 531.3 385.8 530.7C428.7 530 471.3 534 514.2 539.3C557 544.7 600 551.3 642.8 553.8C685.7 556.3 728.3 554.7 771.2 551.3C814 548 857 543 878.5 540.5L900 538L900 601L878.5 601C857 601 814 601 771.2 601C728.3 601 685.7 601 642.8 601C600 601 557 601 514.2 601C471.3 601 428.7 601 385.8 601C343 601 300 601 257.2 601C214.3 601 171.7 601 128.8 601C86 601 43 601 21.5 601L0 601Z" fill="#a22534"></path></svg>